<svg data-v-fde0c5aa="" xmlns="http://www.w3.org/2000/svg" viewBox="0 0 300 300" class="iconAboveSlogan"><!----><defs data-v-fde0c5aa=""><!----></defs><rect data-v-fde0c5aa="" fill="#545594" x="0" y="0" width="300px" height="300px" class="logo-background-square"></rect><defs data-v-fde0c5aa=""><!----></defs><g data-v-fde0c5aa="" id="a5569abc-0890-4c70-8e31-805ce2e26be8" fill="#ffffff" transform="matrix(3.1972454620723303,0,0,3.1972454620723303,18.561239484896248,151.3843124235374)"><path d="M6.40 4.45L3.68 4.45L3.68 4.45Q3.65 5.25 3.65 6.06L3.65 6.06L3.65 6.06Q3.65 6.87 3.65 7.71L3.65 7.71L5.52 7.71L5.70 6.47L6.45 6.47L6.45 9.86L5.70 9.86L5.52 8.48L3.65 8.48L3.65 8.48Q3.65 9.41 3.65 10.28L3.65 10.28L3.65 10.28Q3.65 11.16 3.68 12.01L3.68 12.01L4.96 12.15L4.96 12.85L0.45 12.85L0.45 12.15L1.58 12.03L1.58 12.03Q1.61 11.16 1.61 10.28L1.61 10.28L1.61 10.28Q1.61 9.41 1.61 8.51L1.61 8.51L1.61 8.02L1.61 8.02Q1.61 7.14 1.61 6.27L1.61 6.27L1.61 6.27Q1.61 5.39 1.58 4.51L1.58 4.51L0.45 4.38L0.45 3.68L7.64 3.68L7.74 6.12L6.69 6.12L6.40 4.45ZM11.28 6.58L11.28 6.58L11.28 6.58Q9.81 6.58 9.81 9.48L9.81 9.48L9.81 9.48Q9.81 10.96 10.19 11.66L10.19 11.66L10.19 11.66Q10.56 12.36 11.28 12.36L11.28 12.36L11.28 12.36Q12.03 12.36 12.39 11.66L12.39 11.66L12.39 11.66Q12.75 10.96 12.75 9.48L12.75 9.48L12.75 9.48Q12.75 6.58 11.28 6.58ZM11.28 5.88L11.28 5.88L11.28 5.88Q11.98 5.88 12.62 6.13L12.62 6.13L12.62 6.13Q13.26 6.38 13.75 6.85L13.75 6.85L13.75 6.85Q14.24 7.32 14.53 7.99L14.53 7.99L14.53 7.99Q14.83 8.65 14.83 9.49L14.83 9.49L14.83 9.49Q14.83 10.33 14.56 10.99L14.56 10.99L14.56 10.99Q14.29 11.65 13.82 12.11L13.82 12.11L13.82 12.11Q13.34 12.57 12.69 12.82L12.69 12.82L12.69 12.82Q12.04 13.06 11.28 13.06L11.28 13.06L11.28 13.06Q10.53 13.06 9.88 12.82L9.88 12.82L9.88 12.82Q9.23 12.57 8.76 12.11L8.76 12.11L8.76 12.11Q8.29 11.65 8.02 10.99L8.02 10.99L8.02 10.99Q7.74 10.33 7.74 9.49L7.74 9.49L7.74 9.49Q7.74 8.65 8.03 7.99L8.03 7.99L8.03 7.99Q8.32 7.32 8.81 6.85L8.81 6.85L8.81 6.85Q9.30 6.38 9.94 6.13L9.94 6.13L9.94 6.13Q10.58 5.88 11.28 5.88ZM22.88 12.07L23.67 12.24L23.67 12.85L20.09 12.85L20.09 12.24L20.94 12.07L20.94 12.07Q20.96 11.55 20.96 10.96L20.96 10.96L20.96 10.96Q20.96 10.37 20.96 9.91L20.96 9.91L20.96 8.57L20.96 8.57Q20.96 7.77 20.79 7.40L20.79 7.40L20.79 7.40Q20.62 7.03 20.13 7.03L20.13 7.03L20.13 7.03Q19.73 7.03 19.34 7.25L19.34 7.25L19.34 7.25Q18.96 7.46 18.55 7.85L18.55 7.85L18.55 9.91L18.55 9.91Q18.55 10.36 18.55 10.96L18.55 10.96L18.55 10.96Q18.55 11.55 18.56 12.07L18.56 12.07L19.36 12.24L19.36 12.85L15.78 12.85L15.78 12.24L16.63 12.07L16.63 12.07Q16.65 11.54 16.65 10.95L16.65 10.95L16.65 10.95Q16.65 10.36 16.65 9.91L16.65 9.91L16.65 9.11L16.65 9.11Q16.65 8.82 16.65 8.60L16.65 8.60L16.65 8.60Q16.65 8.39 16.64 8.20L16.64 8.20L16.64 8.20Q16.63 8.01 16.63 7.83L16.63 7.83L16.63 7.83Q16.62 7.66 16.60 7.45L16.60 7.45L15.67 7.32L15.67 6.79L18.20 5.88L18.41 6.02L18.51 7.13L18.51 7.13Q18.80 6.79 19.06 6.56L19.06 6.56L19.06 6.56Q19.32 6.33 19.59 6.17L19.59 6.17L19.59 6.17Q19.85 6.02 20.14 5.95L20.14 5.95L20.14 5.95Q20.43 5.88 20.79 5.88L20.79 5.88L20.79 5.88Q21.80 5.88 22.33 6.48L22.33 6.48L22.33 6.48Q22.86 7.07 22.86 8.34L22.86 8.34L22.86 9.91L22.86 9.91Q22.86 10.37 22.86 10.97L22.86 10.97L22.86 10.97Q22.86 11.56 22.88 12.07L22.88 12.07ZM26.52 8.86L28.20 8.86L28.20 8.86Q28.70 8.86 28.89 8.65L28.89 8.65L28.89 8.65Q29.08 8.44 29.08 7.99L29.08 7.99L29.08 7.99Q29.08 7.32 28.80 6.95L28.80 6.95L28.80 6.95Q28.52 6.58 28.07 6.58L28.07 6.58L28.07 6.58Q27.83 6.58 27.58 6.69L27.58 6.69L27.58 6.69Q27.33 6.80 27.11 7.07L27.11 7.07L27.11 7.07Q26.89 7.34 26.73 7.78L26.73 7.78L26.73 7.78Q26.57 8.22 26.52 8.86L26.52 8.86ZM30.80 9.56L26.50 9.56L26.50 9.56Q26.54 10.81 27.11 11.39L27.11 11.39L27.11 11.39Q27.68 11.97 28.53 11.97L28.53 11.97L28.53 11.97Q29.15 11.97 29.55 11.70L29.55 11.70L29.55 11.70Q29.95 11.42 30.27 10.92L30.27 10.92L30.74 11.19L30.74 11.19Q30.46 12.11 29.69 12.59L29.69 12.59L29.69 12.59Q28.92 13.06 27.86 13.06L27.86 13.06L27.86 13.06Q27.10 13.06 26.47 12.82L26.47 12.82L26.47 12.82Q25.84 12.59 25.40 12.13L25.40 12.13L25.40 12.13Q24.96 11.68 24.72 11.01L24.72 11.01L24.72 11.01Q24.47 10.35 24.47 9.49L24.47 9.49L24.47 9.49Q24.47 8.69 24.74 8.04L24.74 8.04L24.74 8.04Q25.00 7.38 25.47 6.90L25.47 6.90L25.47 6.90Q25.94 6.41 26.59 6.15L26.59 6.15L26.59 6.15Q27.23 5.88 27.97 5.88L27.97 5.88L27.97 5.88Q28.64 5.88 29.18 6.10L29.18 6.10L29.18 6.10Q29.72 6.31 30.10 6.71L30.10 6.71L30.10 6.71Q30.48 7.10 30.68 7.64L30.68 7.64L30.68 7.64Q30.88 8.19 30.88 8.83L30.88 8.83L30.88 8.83Q30.88 9.23 30.80 9.56L30.80 9.56ZM35.95 11.52L36.36 12.00L36.36 12.00Q36.09 12.40 35.59 12.70L35.59 12.70L35.59 12.70Q35.08 12.99 34.33 12.99L34.33 12.99L34.33 12.99Q33.47 12.99 32.98 12.57L32.98 12.57L32.98 12.57Q32.48 12.15 32.48 11.27L32.48 11.27L32.48 11.27Q32.48 10.84 32.49 10.52L32.49 10.52L32.49 10.52Q32.49 10.21 32.49 9.80L32.49 9.80L32.49 7.03L31.56 7.03L31.56 6.26L32.66 6.12L33.05 4.17L34.40 4.17L34.40 6.13L35.99 6.13L35.99 7.03L34.40 7.03L34.40 10.88L34.40 10.88Q34.40 11.40 34.60 11.63L34.60 11.63L34.60 11.63Q34.80 11.86 35.13 11.86L35.13 11.86L35.13 11.86Q35.27 11.86 35.48 11.79L35.48 11.79L35.48 11.79Q35.70 11.73 35.95 11.52L35.95 11.52ZM38.67 4.72L38.67 4.72L38.67 4.72Q38.19 4.72 37.85 4.40L37.85 4.40L37.85 4.40Q37.51 4.09 37.51 3.60L37.51 3.60L37.51 3.60Q37.51 3.11 37.85 2.80L37.85 2.80L37.85 2.80Q38.19 2.49 38.67 2.49L38.67 2.49L38.67 2.49Q39.16 2.49 39.49 2.80L39.49 2.80L39.49 2.80Q39.83 3.11 39.83 3.60L39.83 3.60L39.83 3.60Q39.83 4.09 39.49 4.40L39.49 4.40L39.49 4.40Q39.16 4.72 38.67 4.72ZM39.66 12.07L40.46 12.24L40.46 12.85L36.88 12.85L36.88 12.24L37.73 12.07L37.73 12.07Q37.74 11.54 37.74 10.95L37.74 10.95L37.74 10.95Q37.74 10.36 37.74 9.91L37.74 9.91L37.74 9.21L37.74 9.21Q37.74 8.64 37.73 8.25L37.73 8.25L37.73 8.25Q37.72 7.87 37.70 7.45L37.70 7.45L36.76 7.32L36.76 6.79L39.48 5.88L39.69 6.02L39.65 8.02L39.65 9.91L39.65 9.91Q39.65 10.36 39.65 10.96L39.65 10.96L39.65 10.96Q39.65 11.55 39.66 12.07L39.66 12.07ZM47.32 12.07L48.20 12.24L48.20 12.85L44.53 12.85L44.53 12.24L45.22 12.12L44.06 10.30L42.83 12.10L43.64 12.24L43.64 12.85L40.95 12.85L40.95 12.24L42.04 12.05L43.72 9.77L41.78 6.86L40.96 6.75L40.96 6.13L44.51 6.13L44.51 6.75L43.85 6.86L44.93 8.53L46.07 6.86L45.47 6.75L45.47 6.13L47.74 6.13L47.74 6.75L46.82 6.92L45.25 9.02L47.32 12.07ZM58.69 4.45L56.84 4.45L56.84 4.45Q56.81 5.33 56.81 6.22L56.81 6.22L56.81 6.22Q56.81 7.11 56.81 8.02L56.81 8.02L56.81 8.51L56.81 8.51Q56.81 9.39 56.81 10.26L56.81 10.26L56.81 10.26Q56.81 11.13 56.84 12.01L56.84 12.01L58.11 12.15L58.11 12.85L53.47 12.85L53.47 12.15L54.74 12.01L54.74 12.01Q54.77 11.14 54.77 10.27L54.77 10.27L54.77 10.27Q54.77 9.39 54.77 8.51L54.77 8.51L54.77 8.02L54.77 8.02Q54.77 7.13 54.77 6.24L54.77 6.24L54.77 6.24Q54.77 5.35 54.74 4.45L54.74 4.45L52.89 4.45L52.61 6.26L51.56 6.26L51.63 3.68L59.95 3.68L60.02 6.26L58.97 6.26L58.69 4.45ZM61.71 8.86L63.39 8.86L63.39 8.86Q63.90 8.86 64.08 8.65L64.08 8.65L64.08 8.65Q64.27 8.44 64.27 7.99L64.27 7.99L64.27 7.99Q64.27 7.32 63.99 6.95L63.99 6.95L63.99 6.95Q63.71 6.58 63.27 6.58L63.27 6.58L63.27 6.58Q63.03 6.58 62.78 6.69L62.78 6.69L62.78 6.69Q62.52 6.80 62.31 7.07L62.31 7.07L62.31 7.07Q62.09 7.34 61.93 7.78L61.93 7.78L61.93 7.78Q61.77 8.22 61.71 8.86L61.71 8.86ZM66.00 9.56L61.70 9.56L61.70 9.56Q61.74 10.81 62.31 11.39L62.31 11.39L62.31 11.39Q62.87 11.97 63.73 11.97L63.73 11.97L63.73 11.97Q64.34 11.97 64.74 11.70L64.74 11.70L64.74 11.70Q65.14 11.42 65.46 10.92L65.46 10.92L65.94 11.19L65.94 11.19Q65.66 12.11 64.89 12.59L64.89 12.59L64.89 12.59Q64.12 13.06 63.06 13.06L63.06 13.06L63.06 13.06Q62.30 13.06 61.67 12.82L61.67 12.82L61.67 12.82Q61.04 12.59 60.60 12.13L60.60 12.13L60.60 12.13Q60.16 11.68 59.91 11.01L59.91 11.01L59.91 11.01Q59.67 10.35 59.67 9.49L59.67 9.49L59.67 9.49Q59.67 8.69 59.93 8.04L59.93 8.04L59.93 8.04Q60.20 7.38 60.67 6.90L60.67 6.90L60.67 6.90Q61.14 6.41 61.78 6.15L61.78 6.15L61.78 6.15Q62.43 5.88 63.17 5.88L63.17 5.88L63.17 5.88Q63.84 5.88 64.38 6.10L64.38 6.10L64.38 6.10Q64.92 6.31 65.30 6.71L65.30 6.71L65.30 6.71Q65.67 7.10 65.88 7.64L65.88 7.64L65.88 7.64Q66.08 8.19 66.08 8.83L66.08 8.83L66.08 8.83Q66.08 9.23 66.00 9.56L66.00 9.56ZM72.79 10.92L73.26 11.19L73.26 11.19Q73.01 12.10 72.24 12.58L72.24 12.58L72.24 12.58Q71.47 13.06 70.42 13.06L70.42 13.06L70.42 13.06Q69.65 13.06 69.03 12.82L69.03 12.82L69.03 12.82Q68.40 12.59 67.96 12.13L67.96 12.13L67.96 12.13Q67.52 11.68 67.28 11.01L67.28 11.01L67.28 11.01Q67.05 10.35 67.05 9.49L67.05 9.49L67.05 9.49Q67.05 8.65 67.33 7.98L67.33 7.98L67.33 7.98Q67.62 7.31 68.11 6.84L68.11 6.84L68.11 6.84Q68.60 6.37 69.25 6.13L69.25 6.13L69.25 6.13Q69.90 5.88 70.64 5.88L70.64 5.88L70.64 5.88Q71.20 5.88 71.69 6.03L71.69 6.03L71.69 6.03Q72.17 6.19 72.52 6.45L72.52 6.45L72.52 6.45Q72.87 6.71 73.07 7.07L73.07 7.07L73.07 7.07Q73.28 7.43 73.28 7.85L73.28 7.85L73.28 7.85Q73.12 8.53 72.45 8.53L72.45 8.53L72.45 8.53Q72.06 8.53 71.78 8.27L71.78 8.27L71.78 8.27Q71.50 8.01 71.47 7.38L71.47 7.38L71.43 6.64L71.43 6.64Q71.32 6.61 71.21 6.59L71.21 6.59L71.21 6.59Q71.11 6.58 70.99 6.58L70.99 6.58L70.99 6.58Q70.60 6.58 70.25 6.75L70.25 6.75L70.25 6.75Q69.90 6.93 69.64 7.27L69.64 7.27L69.64 7.27Q69.38 7.62 69.23 8.12L69.23 8.12L69.23 8.12Q69.08 8.62 69.08 9.28L69.08 9.28L69.08 9.28Q69.08 10.65 69.65 11.31L69.65 11.31L69.65 11.31Q70.22 11.97 71.11 11.97L71.11 11.97L71.11 11.97Q71.67 11.97 72.06 11.71L72.06 11.71L72.06 11.71Q72.46 11.45 72.79 10.92L72.79 10.92ZM80.98 12.07L81.77 12.24L81.77 12.85L78.19 12.85L78.19 12.24L79.04 12.07L79.04 12.07Q79.06 11.55 79.06 10.96L79.06 10.96L79.06 10.96Q79.06 10.37 79.06 9.91L79.06 9.91L79.06 8.57L79.06 8.57Q79.06 7.77 78.89 7.40L78.89 7.40L78.89 7.40Q78.72 7.03 78.23 7.03L78.23 7.03L78.23 7.03Q77.83 7.03 77.44 7.25L77.44 7.25L77.44 7.25Q77.06 7.46 76.65 7.85L76.65 7.85L76.65 9.91L76.65 9.91Q76.65 10.36 76.65 10.96L76.65 10.96L76.65 10.96Q76.65 11.55 76.66 12.07L76.66 12.07L77.46 12.24L77.46 12.85L73.88 12.85L73.88 12.24L74.73 12.07L74.73 12.07Q74.75 11.54 74.75 10.95L74.75 10.95L74.75 10.95Q74.75 10.36 74.75 9.91L74.75 9.91L74.75 4.10L73.70 3.96L73.70 3.40L76.47 2.77L76.66 2.88L76.61 4.87L76.61 7.13L76.61 7.13Q76.90 6.79 77.16 6.56L77.16 6.56L77.16 6.56Q77.42 6.33 77.69 6.17L77.69 6.17L77.69 6.17Q77.95 6.02 78.25 5.95L78.25 5.95L78.25 5.95Q78.54 5.88 78.90 5.88L78.90 5.88L78.90 5.88Q79.90 5.88 80.43 6.48L80.43 6.48L80.43 6.48Q80.96 7.07 80.96 8.34L80.96 8.34L80.96 9.91L80.96 9.91Q80.96 10.37 80.96 10.97L80.96 10.97L80.96 10.97Q80.96 11.56 80.98 12.07L80.98 12.07Z"></path></g><defs data-v-fde0c5aa=""><!----></defs><g data-v-fde0c5aa="" id="2c8d5f99-5602-42ce-8617-5ddbc597e140" stroke="none" fill="#ffffff" transform="matrix(0.3879445491405586,0,0,0.3879445491405586,125.17137385789222,91.68850992764902)"><circle cx="60.167" cy="11" r="3"></circle><path d="M51.167 118a2 2 0 0 0 2 2h14a2 2 0 0 0 0-4h-14a2 2 0 0 0-2 2zM123.328 42.121l-5.927-.987a22.842 22.842 0 0 0-2.412-5.828l3.491-4.89a2 2 0 0 0-.213-2.576l-4.107-4.107a1.998 1.998 0 0 0-2.576-.213l-4.89 3.49a22.842 22.842 0 0 0-5.828-2.411l-.987-5.927A2 2 0 0 0 97.906 17h-5.812a2 2 0 0 0-1.973 1.672l-.987 5.927a22.842 22.842 0 0 0-5.828 2.412l-4.89-3.491a1.998 1.998 0 0 0-2.576.213l-4.107 4.107a2 2 0 0 0-.213 2.576l3.49 4.89a22.842 22.842 0 0 0-2.411 5.828l-5.927.987A2 2 0 0 0 65 44.094v5.812a2 2 0 0 0 1.672 1.973l5.927.987a22.842 22.842 0 0 0 2.412 5.828l-3.491 4.89a2 2 0 0 0 .213 2.576l4.107 4.107a1.997 1.997 0 0 0 2.576.213l4.89-3.49a22.842 22.842 0 0 0 5.828 2.411l.987 5.927A2 2 0 0 0 92.094 77h5.812a2 2 0 0 0 1.973-1.672l.987-5.927a22.842 22.842 0 0 0 5.828-2.412l4.89 3.491a1.997 1.997 0 0 0 2.576-.213l4.107-4.107a2 2 0 0 0 .213-2.576l-3.49-4.89a22.842 22.842 0 0 0 2.411-5.828l5.927-.987A2 2 0 0 0 125 49.906v-5.812a2 2 0 0 0-1.672-1.973zM121 48.211l-5.577.93a2.001 2.001 0 0 0-1.635 1.587 18.947 18.947 0 0 1-2.865 6.925 2 2 0 0 0 .033 2.276l3.284 4.6-1.71 1.711-4.601-3.284a1.998 1.998 0 0 0-2.276-.033 18.947 18.947 0 0 1-6.925 2.865 2.001 2.001 0 0 0-1.587 1.635L96.21 73h-2.423l-.929-5.577a2.001 2.001 0 0 0-1.587-1.635 18.947 18.947 0 0 1-6.925-2.865 1.998 1.998 0 0 0-2.276.033l-4.6 3.284-1.711-1.71 3.284-4.601a2 2 0 0 0 .033-2.276 18.947 18.947 0 0 1-2.865-6.925 2.001 2.001 0 0 0-1.635-1.587L69 48.21v-2.423l5.577-.929a2.001 2.001 0 0 0 1.635-1.587 18.947 18.947 0 0 1 2.865-6.925 2 2 0 0 0-.033-2.276l-3.284-4.6 1.71-1.711 4.601 3.284a1.996 1.996 0 0 0 2.276.033 18.947 18.947 0 0 1 6.925-2.865 2.001 2.001 0 0 0 1.587-1.635L93.79 21h2.423l.929 5.577a2.001 2.001 0 0 0 1.587 1.635 18.947 18.947 0 0 1 6.925 2.865 1.996 1.996 0 0 0 2.276-.033l4.6-3.284 1.711 1.71-3.284 4.601a2 2 0 0 0-.033 2.276 18.947 18.947 0 0 1 2.865 6.925 2.001 2.001 0 0 0 1.635 1.587l5.577.93z"></path><path d="M95 35a12 12 0 1 0 12 12 12.013 12.013 0 0 0-12-12zm0 20a8 8 0 1 1 8-8 8.01 8.01 0 0 1-8 8zM50.103 105.22a17.12 17.12 0 0 0 3.5-18.826 2 2 0 0 0-3.262-.619l-7.542 7.647-4.559-.216-.216-4.677 7.64-7.745a2 2 0 0 0-.582-3.219 16.779 16.779 0 0 0-18.969 3.413 17.145 17.145 0 0 0-4.06 18.494L3.577 118.206a2 2 0 1 0 2.848 2.809l19.453-19.723a2 2 0 0 0 .347-2.335c-2.544-4.836-1.444-10.933 2.737-15.17a12.773 12.773 0 0 1 11.599-3.524l-5.998 6.08a2 2 0 0 0-.574 1.497l.34 7.369a2 2 0 0 0 1.903 1.906l7.27.345a2.043 2.043 0 0 0 1.519-.594l5.8-5.88a13.069 13.069 0 0 1-3.565 11.426 13.331 13.331 0 0 1-15.55 2.097 1.996 1.996 0 0 0-2.373.356l-19.46 19.73a2 2 0 1 0 2.847 2.81l18.459-18.715a17.382 17.382 0 0 0 18.925-3.47z"></path><path d="M89.06 128a5.87 5.87 0 0 0 4.211-1.769A5.991 5.991 0 0 0 95 121.998L94.986 81h-2.892a6.007 6.007 0 0 1-1.108-.105L91 122a2.018 2.018 0 0 1-.578 1.425 1.902 1.902 0 0 1-1.362.575H31.104A2.422 2.422 0 0 1 29 122.622v-6.028l-4 4.055v2.143a2.027 2.027 0 0 0 .014.23 6.232 6.232 0 0 0 6.09 4.978zM90.96 6.084l.002 7.028A5.998 5.998 0 0 1 92.094 13h2.868l-.002-6.917C94.96 2.657 91.379 0 88.299 0H31.046c-3.343 0-5.827 2.723-6.043 6.622a2.139 2.139 0 0 0-.003.11V76.62a20.58 20.58 0 0 1 4-2.53V6.791C29.108 5.094 29.908 4 31.046 4h57.253c1.169 0 2.661 1.168 2.661 2.084z"></path></g><defs data-v-fde0c5aa=""><!----></defs><g data-v-fde0c5aa="" id="c68a7248-d493-4e7a-a47e-f439bd97e1e6" fill="#ffffff" transform="matrix(0.49627157124626553,0,0,0.49627157124626553,52.08809457456793,201.50264410065375)"><path d="M0.83 10.82L0.83 10.82L0.83 10.82Q0.83 10.53 1.02 10.53L1.02 10.53L1.02 10.53Q1.20 10.53 1.25 10.67L1.25 10.67L1.25 10.67Q1.39 11.00 1.51 11.25L1.51 11.25L1.51 11.25Q1.62 11.49 1.89 11.85L1.89 11.85L1.89 11.85Q2.16 12.21 2.46 12.44L2.46 12.44L2.46 12.44Q2.77 12.67 3.25 12.84L3.25 12.84L3.25 12.84Q3.74 13.01 4.31 13.01L4.31 13.01L4.31 13.01Q5.36 13.01 6.00 12.45L6.00 12.45L6.00 12.45Q6.64 11.90 6.64 11.00L6.64 11.00L6.64 11.00Q6.64 10.35 6.20 9.90L6.20 9.90L6.20 9.90Q5.77 9.46 5.21 9.27L5.21 9.27L5.21 9.27Q4.65 9.09 3.79 8.77L3.79 8.77L3.79 8.77Q2.93 8.46 2.38 8.13L2.38 8.13L2.38 8.13Q1.11 7.38 1.11 6.08L1.11 6.08L1.11 6.08Q1.11 4.83 2.01 4.08L2.01 4.08L2.01 4.08Q2.91 3.33 4.35 3.33L4.35 3.33L4.35 3.33Q4.89 3.33 5.62 3.56L5.62 3.56L5.62 3.56Q6.36 3.79 6.37 3.79L6.37 3.79L6.37 3.79Q6.41 3.79 6.52 3.74L6.52 3.74L6.52 3.74Q6.64 3.68 6.69 3.68L6.69 3.68L6.69 3.68Q6.87 3.68 6.90 3.79L6.90 3.79L6.90 3.79Q7.20 5.49 7.20 5.70L7.20 5.70L7.20 5.70Q7.20 6.09 7 6.09L7 6.09L7 6.09Q6.87 6.09 6.80 5.89L6.80 5.89L6.80 5.89Q6.64 5.49 6.48 5.24L6.48 5.24L6.48 5.24Q6.31 4.98 6.24 4.91L6.24 4.91L6.24 4.91Q6.17 4.84 5.88 4.58L5.88 4.58L5.88 4.58Q5.12 3.91 4.05 3.91L4.05 3.91L4.05 3.91Q3.18 3.91 2.59 4.33L2.59 4.33L2.59 4.33Q2.00 4.75 2.00 5.46L2.00 5.46L2.00 5.46Q2.00 6.09 2.35 6.50L2.35 6.50L2.35 6.50Q2.69 6.90 3.26 7.13L3.26 7.13L3.26 7.13Q3.84 7.35 4.47 7.55L4.47 7.55L4.47 7.55Q5.10 7.74 5.80 8.09L5.80 8.09L5.80 8.09Q6.51 8.44 6.97 8.93L6.97 8.93L6.97 8.93Q7.53 9.53 7.53 10.43L7.53 10.43L7.53 10.43Q7.53 11.90 6.59 12.76L6.59 12.76L6.59 12.76Q5.66 13.62 4.27 13.62L4.27 13.62L4.27 13.62Q3.30 13.62 2.72 13.52L2.72 13.52L2.72 13.52Q2.13 13.41 1.51 13.09L1.51 13.09L1.51 13.09Q1.33 12.98 1.08 12.00L1.08 12.00L1.08 12.00Q0.83 11.02 0.83 10.82ZM15.62 3.72L15.62 3.72L15.62 3.72Q15.62 3.50 15.95 3.50L15.95 3.50L15.95 3.50Q15.99 3.50 16.10 3.49L16.10 3.49L16.10 3.49Q16.21 3.49 16.46 3.49L16.46 3.49L16.46 3.49Q16.53 3.49 16.85 3.51L16.85 3.51L16.85 3.51Q17.16 3.53 17.30 3.53L17.30 3.53L17.30 3.53Q17.61 3.53 18.49 3.51L18.49 3.51L18.49 3.51Q19.38 3.49 19.61 3.49L19.61 3.49L19.61 3.49Q20.93 3.49 21.88 4.15L21.88 4.15L21.88 4.15Q22.83 4.82 22.83 6.06L22.83 6.06L22.83 6.06Q22.83 6.75 22.58 7.29L22.58 7.29L22.58 7.29Q22.33 7.83 21.97 8.13L21.97 8.13L21.97 8.13Q21.62 8.44 21.18 8.64L21.18 8.64L21.18 8.64Q20.73 8.85 20.39 8.91L20.39 8.91L20.39 8.91Q20.05 8.97 19.78 8.97L19.78 8.97L19.78 8.97Q19.33 8.97 18.87 8.87L18.87 8.87L18.87 8.87Q18.41 8.76 18.41 8.65L18.41 8.65L18.41 8.65Q18.41 8.44 18.59 8.44L18.59 8.44L18.59 8.44Q18.66 8.44 18.88 8.50L18.88 8.50L18.88 8.50Q19.10 8.55 19.31 8.55L19.31 8.55L19.31 8.55Q19.63 8.55 19.99 8.46L19.99 8.46L19.99 8.46Q20.36 8.37 20.75 8.17L20.75 8.17L20.75 8.17Q21.14 7.97 21.39 7.55L21.39 7.55L21.39 7.55Q21.64 7.14 21.64 6.59L21.64 6.59L21.64 6.59Q21.64 5.66 20.89 4.85L20.89 4.85L20.89 4.85Q20.13 4.05 18.80 4.05L18.80 4.05L18.80 4.05Q18.37 4.05 18.21 4.30L18.21 4.30L18.21 4.30Q18.06 4.56 18.06 5.47L18.06 5.47L18.06 5.47Q18.06 8.39 18.05 8.80L18.05 8.80L18.05 8.80Q18.03 9.21 18.03 11.26L18.03 11.26L18.03 11.26Q18.03 12.49 18.61 12.87L18.61 12.87L18.61 12.87Q18.76 12.96 18.99 12.99L18.99 12.99L18.99 12.99Q19.22 13.02 19.38 13.01L19.38 13.01L19.38 13.01Q19.53 13.01 19.65 13.07L19.65 13.07L19.65 13.07Q19.77 13.13 19.77 13.30L19.77 13.30L19.77 13.30Q19.77 13.54 19.45 13.54L19.45 13.54L19.45 13.54Q19.12 13.54 18.31 13.50L18.31 13.50L18.31 13.50Q17.50 13.47 17.44 13.47L17.44 13.47L17.44 13.47Q17.30 13.47 16.89 13.50L16.89 13.50L16.89 13.50Q16.48 13.52 16.14 13.52L16.14 13.52L16.14 13.52Q15.71 13.52 15.71 13.37L15.71 13.37L15.71 13.37Q15.71 13.29 15.73 13.23L15.73 13.23L15.73 13.23Q15.75 13.17 15.77 13.14L15.77 13.14L15.77 13.14Q15.79 13.10 15.86 13.08L15.86 13.08L15.86 13.08Q15.93 13.05 15.96 13.03L15.96 13.03L15.96 13.03Q15.99 13.02 16.09 13.00L16.09 13.00L16.09 13.00Q16.20 12.98 16.24 12.96L16.24 12.96L16.24 12.96Q16.27 12.95 16.32 12.94L16.32 12.94L16.32 12.94Q16.38 12.94 16.40 12.93L16.40 12.93L16.40 12.93Q16.42 12.92 16.47 12.89L16.47 12.89L16.47 12.89Q16.52 12.85 16.55 12.79L16.55 12.79L16.55 12.79Q16.58 12.73 16.63 12.62L16.63 12.62L16.63 12.62Q16.67 12.52 16.73 12.35L16.73 12.35L16.73 12.35Q16.83 12.08 16.88 10.25L16.88 10.25L16.88 10.25Q16.94 8.41 16.94 7.41L16.94 7.41L16.94 7.41Q16.94 6.54 16.93 5.80L16.93 5.80L16.93 5.80Q16.93 5.07 16.93 5.03L16.93 5.03L16.93 5.03Q16.93 4.65 16.69 4.28L16.69 4.28L16.69 4.28Q16.45 3.91 15.90 3.91L15.90 3.91L15.90 3.91Q15.62 3.91 15.62 3.72ZM30.52 3.65L30.52 3.65L30.52 3.65Q30.52 3.46 30.91 3.46L30.91 3.46L30.91 3.46Q30.97 3.46 31.09 3.47L31.09 3.47L31.09 3.47Q31.22 3.49 31.29 3.49L31.29 3.49L31.29 3.49Q31.33 3.49 32.61 3.52L32.61 3.52L32.61 3.52Q33.88 3.56 34.71 3.56L34.71 3.56L34.71 3.56Q35 3.56 36.16 3.53L36.16 3.53L36.16 3.53Q37.31 3.50 37.51 3.50L37.51 3.50L37.51 3.50Q37.77 3.50 37.77 3.82L37.77 3.82L37.77 3.82Q37.77 3.91 37.69 4.38L37.69 4.38L37.69 4.38Q37.60 4.84 37.60 5.25L37.60 5.25L37.60 5.25Q37.60 5.38 37.53 5.47L37.53 5.47L37.53 5.47Q37.46 5.56 37.38 5.56L37.38 5.56L37.38 5.56Q37.17 5.56 37.17 5.26L37.17 5.26L37.17 5.26Q37.17 4.89 36.93 4.58L36.93 4.58L36.93 4.58Q36.69 4.27 36.34 4.26L36.34 4.26L36.34 4.26Q35.08 4.16 34.41 4.16L34.41 4.16L34.05 4.16L34.05 4.16Q33.32 4.16 33.20 4.26L33.20 4.26L33.20 4.26Q33.08 4.37 33.05 5.01L33.05 5.01L33.05 5.01Q33.00 6.02 33.00 7.35L33.00 7.35L33.00 7.35Q33.00 8.05 33.26 8.06L33.26 8.06L33.61 8.06L34.20 8.06L34.64 8.06L34.64 8.06Q35.48 8.06 35.76 8.01L35.76 8.01L35.76 8.01Q36.04 7.95 36.26 7.80L36.26 7.80L36.26 7.80Q36.53 7.62 36.58 7.28L36.58 7.28L36.58 7.28Q36.62 7.04 36.78 7.04L36.78 7.04L36.78 7.04Q36.90 7.04 36.93 7.08L36.93 7.08L36.93 7.08Q36.96 7.13 36.96 7.27L36.96 7.27L36.96 7.27Q36.96 7.36 36.90 7.91L36.90 7.91L36.90 7.91Q36.85 8.46 36.85 8.74L36.85 8.74L36.85 8.74Q36.85 9.00 36.87 9.24L36.87 9.24L36.87 9.24Q36.89 9.48 36.89 9.59L36.89 9.59L36.89 9.59Q36.89 9.94 36.79 9.94L36.79 9.94L36.79 9.94Q36.58 9.94 36.48 9.60L36.48 9.60L36.48 9.60Q36.29 9.02 36.13 8.92L36.13 8.92L36.13 8.92Q35.84 8.72 34.79 8.72L34.79 8.72L34.79 8.72Q34.37 8.72 34.11 8.72L34.11 8.72L34.11 8.72Q33.85 8.72 33.77 8.71L33.77 8.71L33.77 8.71Q33.70 8.71 33.65 8.71L33.65 8.71L33.65 8.71Q33.60 8.71 33.56 8.71L33.56 8.71L33.56 8.71Q32.98 8.71 32.98 8.97L32.98 8.97L32.98 8.97Q32.98 9.38 32.97 9.99L32.97 9.99L32.97 9.99Q32.96 10.60 32.96 10.99L32.96 10.99L32.96 11.55L32.96 11.55Q32.96 12.56 33.29 12.66L33.29 12.66L33.29 12.66Q33.64 12.77 33.89 12.77L33.89 12.77L33.89 12.77Q34.94 12.77 35.73 12.67L35.73 12.67L35.73 12.67Q36.53 12.57 36.92 12.42L36.92 12.42L36.92 12.42Q37.32 12.28 37.59 12.10L37.59 12.10L37.59 12.10Q37.86 11.93 37.93 11.78L37.93 11.78L37.93 11.78Q38.01 11.63 38.09 11.54L38.09 11.54L38.09 11.54Q38.16 11.44 38.25 11.44L38.25 11.44L38.25 11.44Q38.42 11.44 38.42 11.68L38.42 11.68L38.42 11.68Q38.42 12.28 37.81 12.89L37.81 12.89L37.81 12.89Q37.21 13.51 36.76 13.51L36.76 13.51L36.76 13.51Q35.76 13.51 34.49 13.44L34.49 13.44L34.49 13.44Q33.22 13.37 32.91 13.37L32.91 13.37L32.91 13.37Q32.52 13.37 31.93 13.43L31.93 13.43L31.93 13.43Q31.35 13.50 31.01 13.50L31.01 13.50L31.01 13.50Q30.72 13.50 30.72 13.36L30.72 13.36L30.72 13.36Q30.72 13.23 30.72 13.19L30.72 13.19L30.72 13.19Q30.72 13.15 30.76 13.12L30.76 13.12L30.76 13.12Q30.80 13.09 30.85 13.08L30.85 13.08L30.85 13.08Q30.90 13.08 31.03 13.03L31.03 13.03L31.03 13.03Q31.16 12.99 31.32 12.92L31.32 12.92L31.32 12.92Q31.65 12.75 31.76 12.26L31.76 12.26L31.76 12.26Q31.86 11.77 31.86 10.21L31.86 10.21L31.86 8.47L31.86 8.47Q31.86 8.09 31.88 7.29L31.88 7.29L31.88 7.29Q31.91 6.50 31.91 6.05L31.91 6.05L31.91 6.05Q31.91 5.67 31.88 4.77L31.88 4.77L31.88 4.77Q31.86 4.37 31.53 4.14L31.53 4.14L31.53 4.14Q31.19 3.92 30.74 3.91L30.74 3.91L30.74 3.91Q30.52 3.91 30.52 3.65ZM45.98 13.33L45.98 13.33L45.98 13.33Q45.98 13.13 46.19 13.06L46.19 13.06L46.19 13.06Q46.63 12.89 46.97 12.31L46.97 12.31L46.97 12.31Q47.31 11.73 48.64 8.83L48.64 8.83L48.64 8.83Q50.01 5.87 51.06 3.63L51.06 3.63L51.06 3.63Q51.16 3.42 51.23 3.36L51.23 3.36L51.23 3.36Q51.31 3.30 51.48 3.30L51.48 3.30L51.48 3.30Q51.60 3.30 51.65 3.36L51.65 3.36L51.65 3.36Q51.69 3.42 51.83 3.82L51.83 3.82L51.83 3.82Q51.91 4.06 51.97 4.23L51.97 4.23L51.97 4.23Q52.04 4.40 52.18 4.77L52.18 4.77L52.18 4.77Q52.32 5.15 52.49 5.56L52.49 5.56L52.49 5.56Q52.93 6.66 54.03 9.22L54.03 9.22L54.03 9.22Q55.13 11.77 55.23 11.98L55.23 11.98L55.23 11.98Q55.47 12.46 55.76 12.71L55.76 12.71L55.76 12.71Q56.06 12.95 56.27 12.97L56.27 12.97L56.27 12.97Q56.49 12.99 56.64 13.04L56.64 13.04L56.64 13.04Q56.78 13.09 56.78 13.26L56.78 13.26L56.78 13.26Q56.78 13.47 56.41 13.47L56.41 13.47L56.41 13.47Q56.25 13.47 55.80 13.43L55.80 13.43L55.80 13.43Q55.36 13.38 55.15 13.38L55.15 13.38L55.15 13.38Q54.88 13.38 54.46 13.41L54.46 13.41L54.46 13.41Q54.04 13.44 53.84 13.44L53.84 13.44L53.84 13.44Q53.41 13.44 53.29 13.40L53.29 13.40L53.29 13.40Q53.17 13.37 53.17 13.24L53.17 13.24L53.17 13.24Q53.17 13.15 53.28 13.08L53.28 13.08L53.28 13.08Q53.40 13.02 53.52 13.00L53.52 13.00L53.52 13.00Q53.65 12.98 53.76 12.87L53.76 12.87L53.76 12.87Q53.87 12.77 53.87 12.59L53.87 12.59L53.87 12.59Q53.87 12.28 53.52 11.33L53.52 11.33L53.52 11.33Q53.17 10.37 52.93 9.93L52.93 9.93L52.93 9.93Q52.81 9.69 52.36 9.69L52.36 9.69L52.36 9.69Q52.29 9.69 51.74 9.70L51.74 9.70L51.74 9.70Q51.20 9.72 50.67 9.72L50.67 9.72L49.92 9.72L49.92 9.72Q49.29 9.72 49.13 9.79L49.13 9.79L49.13 9.79Q48.97 9.86 48.85 10.12L48.85 10.12L48.85 10.12Q48.76 10.30 48.57 10.70L48.57 10.70L48.57 10.70Q48.37 11.10 48.30 11.26L48.30 11.26L48.30 11.26Q48.23 11.41 48.13 11.65L48.13 11.65L48.13 11.65Q48.02 11.90 47.98 12.05L47.98 12.05L47.98 12.05Q47.95 12.19 47.95 12.31L47.95 12.31L47.95 12.31Q47.95 12.63 48.11 12.80L48.11 12.80L48.11 12.80Q48.27 12.96 48.47 12.98L48.47 12.98L48.47 12.98Q48.66 13.01 48.82 13.06L48.82 13.06L48.82 13.06Q48.99 13.12 48.99 13.26L48.99 13.26L48.99 13.26Q48.99 13.36 48.94 13.40L48.94 13.40L48.94 13.40Q48.90 13.45 48.75 13.45L48.75 13.45L48.75 13.45Q48.66 13.45 48.27 13.45L48.27 13.45L48.27 13.45Q47.87 13.44 47.59 13.44L47.59 13.44L47.59 13.44Q47.28 13.44 46.89 13.47L46.89 13.47L46.89 13.47Q46.51 13.50 46.38 13.50L46.38 13.50L46.38 13.50Q45.98 13.50 45.98 13.33ZM49.49 8.71L49.49 8.71L49.49 8.71Q49.49 8.89 49.62 8.93L49.62 8.93L49.62 8.93Q49.74 8.97 50.20 8.97L50.20 8.97L50.64 8.97L51.97 8.96L51.97 8.96Q52.51 8.96 52.51 8.74L52.51 8.74L52.51 8.74Q52.51 8.55 51.83 7.01L51.83 7.01L51.83 7.01Q51.14 5.46 50.96 5.46L50.96 5.46L50.96 5.46Q50.83 5.46 50.16 7.01L50.16 7.01L50.16 7.01Q49.49 8.55 49.49 8.71ZM64.34 3.71L64.34 3.71L64.34 3.71Q64.34 3.53 64.74 3.53L64.74 3.53L64.74 3.53Q64.88 3.53 65.38 3.54L65.38 3.54L65.38 3.54Q65.88 3.56 66.32 3.56L66.32 3.56L66.32 3.56Q66.57 3.56 66.78 3.54L66.78 3.54L66.78 3.54Q66.99 3.53 67.52 3.53L67.52 3.53L67.52 3.53Q67.76 3.53 67.76 3.71L67.76 3.71L67.76 3.71Q67.76 3.77 67.69 3.81L67.69 3.81L67.69 3.81Q67.62 3.85 67.49 3.91L67.49 3.91L67.49 3.91Q67.35 3.96 67.27 4.00L67.27 4.00L67.27 4.00Q66.84 4.26 66.84 5.71L66.84 5.71L66.84 5.71Q66.84 6.47 66.81 7.17L66.81 7.17L66.81 7.17Q66.79 7.87 66.79 7.90L66.79 7.90L66.79 7.90Q66.79 8.19 66.92 8.19L66.92 8.19L66.92 8.19Q67.02 8.19 68.04 7.36L68.04 7.36L68.04 7.36Q69.06 6.52 70.07 5.55L70.07 5.55L70.07 5.55Q71.08 4.58 71.08 4.27L71.08 4.27L71.08 4.27Q71.08 4.19 71.04 4.12L71.04 4.12L71.04 4.12Q70.99 4.06 70.90 4.02L70.90 4.02L70.90 4.02Q70.80 3.98 70.73 3.96L70.73 3.96L70.73 3.96Q70.66 3.93 70.53 3.91L70.53 3.91L70.53 3.91Q70.41 3.89 70.38 3.88L70.38 3.88L70.38 3.88Q70.22 3.85 70.22 3.68L70.22 3.68L70.22 3.68Q70.22 3.53 70.45 3.53L70.45 3.53L70.45 3.53Q70.48 3.53 70.59 3.54L70.59 3.54L70.59 3.54Q70.71 3.54 70.80 3.54L70.80 3.54L70.80 3.54Q70.83 3.54 71.13 3.56L71.13 3.56L71.13 3.56Q71.43 3.57 71.64 3.57L71.64 3.57L73.37 3.53L73.37 3.53Q73.65 3.53 73.65 3.71L73.65 3.71L73.65 3.71Q73.65 3.81 73.57 3.86L73.57 3.86L73.57 3.86Q73.49 3.91 73.25 3.98L73.25 3.98L73.25 3.98Q73.01 4.05 72.84 4.12L72.84 4.12L72.84 4.12Q72.77 4.14 72.16 4.54L72.16 4.54L72.16 4.54Q72.03 4.62 70.57 5.84L70.57 5.84L70.57 5.84Q69.52 6.73 68.14 7.90L68.14 7.90L67.98 8.09L67.98 8.09Q67.98 8.16 68.14 8.32L68.14 8.32L68.14 8.32Q68.80 8.97 69.85 10.01L69.85 10.01L69.85 10.01Q71.79 11.94 72.37 12.42L72.37 12.42L72.37 12.42Q72.94 12.91 73.46 12.99L73.46 12.99L73.46 12.99Q73.86 13.05 73.92 13.16L73.92 13.16L73.92 13.16Q73.93 13.19 73.93 13.24L73.93 13.24L73.93 13.24Q73.93 13.37 73.81 13.40L73.81 13.40L73.81 13.40Q73.70 13.43 73.12 13.43L73.12 13.43L71.76 13.43L71.76 13.43Q71.67 13.43 71.62 13.41L71.62 13.41L71.62 13.41Q71.57 13.40 71.52 13.37L71.52 13.37L71.52 13.37Q71.47 13.34 71.39 13.25L71.39 13.25L71.39 13.25Q71.32 13.16 71.21 13.04L71.21 13.04L71.21 13.04Q71.11 12.92 70.89 12.68L70.89 12.68L70.89 12.68Q70.67 12.43 70.41 12.17L70.41 12.17L70.41 12.17Q67.44 9.16 67.28 9.03L67.28 9.03L67.28 9.03Q67.13 8.90 67.02 8.90L67.02 8.90L67.02 8.90Q66.82 8.90 66.82 9.28L66.82 9.28L66.82 9.32L66.82 9.32Q66.82 9.37 66.83 9.45L66.83 9.45L66.83 9.45Q66.84 9.53 66.84 9.65L66.84 9.65L66.84 9.65Q66.84 9.76 66.84 9.95L66.84 9.95L66.84 9.95Q66.84 10.14 66.84 10.36L66.84 10.36L66.84 10.36Q66.84 12.19 67.05 12.57L67.05 12.57L67.05 12.57Q67.31 13.02 67.98 13.02L67.98 13.02L67.98 13.02Q68.01 13.02 68.04 13.03L68.04 13.03L68.04 13.03Q68.07 13.03 68.10 13.03L68.10 13.03L68.10 13.03Q68.19 13.03 68.29 13.08L68.29 13.08L68.29 13.08Q68.39 13.13 68.39 13.19L68.39 13.19L68.39 13.19Q68.39 13.34 68.31 13.39L68.31 13.39L68.31 13.39Q68.24 13.44 68.04 13.44L68.04 13.44L68.04 13.44Q67.62 13.44 67.26 13.41L67.26 13.41L67.26 13.41Q66.91 13.38 66.71 13.38L66.71 13.38L66.71 13.38Q66.32 13.38 65.86 13.42L65.86 13.42L65.86 13.42Q65.39 13.45 65.17 13.45L65.17 13.45L65.17 13.45Q64.67 13.45 64.67 13.30L64.67 13.30L64.67 13.24L64.67 13.24Q64.67 13.15 64.80 13.11L64.80 13.11L64.80 13.11Q64.93 13.08 65.13 13.02L65.13 13.02L65.13 13.02Q65.32 12.96 65.44 12.85L65.44 12.85L65.44 12.85Q65.63 12.66 65.68 11.95L65.68 11.95L65.68 11.95Q65.73 11.24 65.73 9.69L65.73 9.69L65.73 7.81L65.73 7.81Q65.73 7.63 65.72 7.12L65.72 7.12L65.72 7.12Q65.70 6.61 65.70 6.30L65.70 6.30L65.70 5.66L65.70 5.66Q65.70 4.94 65.66 4.63L65.66 4.63L65.66 4.63Q65.62 4.30 65.30 4.12L65.30 4.12L65.30 4.12Q64.99 3.93 64.64 3.92L64.64 3.92L64.64 3.92Q64.34 3.91 64.34 3.71ZM81.48 3.71L81.48 3.71L81.48 3.71Q81.48 3.50 81.87 3.50L81.87 3.50L81.87 3.50Q82.01 3.50 82.52 3.53L82.52 3.53L82.52 3.53Q83.02 3.56 83.45 3.56L83.45 3.56L83.45 3.56Q83.72 3.56 83.96 3.54L83.96 3.54L83.96 3.54Q84.21 3.53 84.69 3.53L84.69 3.53L84.69 3.53Q85.06 3.53 85.06 3.72L85.06 3.72L85.06 3.72Q85.06 3.84 84.42 4.10L84.42 4.10L84.42 4.10Q83.97 4.28 83.97 5.71L83.97 5.71L83.97 5.71Q83.97 7.60 83.95 9.05L83.95 9.05L83.95 9.05Q83.93 10.50 83.93 10.89L83.93 10.89L83.93 10.89Q83.93 12.07 84.28 12.59L84.28 12.59L84.28 12.59Q84.59 13.02 84.95 13.02L84.95 13.02L84.95 13.02Q84.98 13.02 85.09 13.03L85.09 13.03L85.09 13.03Q85.20 13.03 85.23 13.03L85.23 13.03L85.23 13.03Q85.33 13.03 85.43 13.08L85.43 13.08L85.43 13.08Q85.53 13.13 85.53 13.19L85.53 13.19L85.53 13.19Q85.53 13.34 85.45 13.39L85.45 13.39L85.45 13.39Q85.37 13.44 85.18 13.44L85.18 13.44L85.18 13.44Q84.76 13.44 84.40 13.41L84.40 13.41L84.40 13.41Q84.04 13.38 83.85 13.38L83.85 13.38L83.85 13.38Q83.45 13.38 82.99 13.42L82.99 13.42L82.99 13.42Q82.53 13.45 82.31 13.45L82.31 13.45L82.31 13.45Q81.68 13.45 81.68 13.24L81.68 13.24L81.68 13.24Q81.68 13.12 81.81 13.07L81.81 13.07L81.81 13.07Q81.94 13.02 82.11 13.00L82.11 13.00L82.11 13.00Q82.28 12.98 82.46 12.82L82.46 12.82L82.46 12.82Q82.64 12.66 82.71 12.35L82.71 12.35L82.71 12.35Q82.74 12.25 82.80 10.76L82.80 10.76L82.80 10.76Q82.87 9.27 82.87 8.61L82.87 8.61L82.87 7.81L82.87 7.81Q82.87 7.63 82.87 7.12L82.87 7.12L82.87 7.12Q82.88 6.61 82.88 6.30L82.88 6.30L82.88 5.66L82.88 5.66Q82.88 5.04 82.82 4.63L82.82 4.63L82.82 4.63Q82.78 4.30 82.45 4.12L82.45 4.12L82.45 4.12Q82.12 3.93 81.77 3.92L81.77 3.92L81.77 3.92Q81.48 3.91 81.48 3.71ZM93.07 3.77L93.07 3.77L93.07 3.77Q93.07 3.68 93.17 3.60L93.17 3.60L93.17 3.60Q93.27 3.53 93.42 3.53L93.42 3.53L93.42 3.53Q93.51 3.53 93.70 3.54L93.70 3.54L93.70 3.54Q93.90 3.54 93.95 3.54L93.95 3.54L93.95 3.54Q94.16 3.54 94.35 3.53L94.35 3.53L94.35 3.53Q94.53 3.51 94.64 3.51L94.64 3.51L94.64 3.51Q94.77 3.51 94.93 3.59L94.93 3.59L94.93 3.59Q95.10 3.67 95.13 3.75L95.13 3.75L95.13 3.75Q95.16 3.79 95.28 3.94L95.28 3.94L95.28 3.94Q95.41 4.09 95.62 4.33L95.62 4.33L95.62 4.33Q95.83 4.56 96.00 4.79L96.00 4.79L96.00 4.79Q97.90 7.27 101.09 10.77L101.09 10.77L101.09 10.77Q101.18 10.86 101.30 10.99L101.30 10.99L101.30 10.99Q101.42 11.12 101.46 11.18L101.46 11.18L101.46 11.18Q101.51 11.24 101.57 11.30L101.57 11.30L101.57 11.30Q101.63 11.35 101.66 11.38L101.66 11.38L101.66 11.38Q101.70 11.40 101.72 11.40L101.72 11.40L101.72 11.40Q101.86 11.40 101.86 10.53L101.86 10.53L101.86 8.89L101.86 8.89Q101.86 7.95 101.86 7.31L101.86 7.31L101.86 7.31Q101.85 6.66 101.84 6.38L101.84 6.38L101.84 6.38Q101.84 6.09 101.84 6.02L101.84 6.02L101.84 5.92L101.84 5.92Q101.84 5.45 101.77 5.11L101.77 5.11L101.77 5.11Q101.71 4.77 101.63 4.59L101.63 4.59L101.63 4.59Q101.54 4.41 101.38 4.28L101.38 4.28L101.38 4.28Q101.22 4.16 101.11 4.12L101.11 4.12L101.11 4.12Q101.00 4.09 100.79 4.05L100.79 4.05L100.79 4.05Q100.58 4.00 100.49 3.98L100.49 3.98L100.49 3.98Q100.21 3.89 100.21 3.74L100.21 3.74L100.21 3.74Q100.21 3.53 100.48 3.53L100.48 3.53L100.48 3.53Q100.56 3.53 101.15 3.54L101.15 3.54L101.15 3.54Q101.74 3.54 101.81 3.54L101.81 3.54L101.81 3.54Q102.14 3.54 102.56 3.53L102.56 3.53L102.56 3.53Q102.97 3.51 103.07 3.51L103.07 3.51L103.07 3.51Q103.31 3.51 103.40 3.56L103.40 3.56L103.40 3.56Q103.49 3.61 103.49 3.75L103.49 3.75L103.49 3.75Q103.49 3.81 103.41 3.86L103.41 3.86L103.41 3.86Q103.33 3.91 103.25 3.94L103.25 3.94L103.25 3.94Q103.17 3.98 103.08 4.00L103.08 4.00L103.00 4.03L103.00 4.03Q102.54 4.28 102.54 5.61L102.54 5.61L102.54 6.15L102.54 6.15Q102.54 7.21 102.46 9.83L102.46 9.83L102.46 9.83Q102.38 12.46 102.38 13.08L102.38 13.08L102.38 13.36L102.38 13.36Q102.38 13.68 102.19 13.68L102.19 13.68L102.19 13.68Q102.06 13.68 101.96 13.58L101.96 13.58L101.96 13.58Q97.31 8.19 96.41 7.17L96.41 7.17L96.41 7.17Q95.51 6.16 95.41 6.16L95.41 6.16L95.41 6.16Q95.27 6.16 95.27 7.11L95.27 7.11L95.27 7.11Q95.27 8.44 95.21 9.97L95.21 9.97L95.21 9.97Q95.16 11.51 95.16 11.65L95.16 11.65L95.16 11.65Q95.16 12.28 95.37 12.61L95.37 12.61L95.37 12.61Q95.59 12.94 95.84 12.98L95.84 12.98L95.84 12.98Q96.10 13.02 96.31 13.07L96.31 13.07L96.31 13.07Q96.53 13.12 96.53 13.26L96.53 13.26L96.53 13.26Q96.53 13.41 96.48 13.45L96.48 13.45L96.48 13.45Q96.43 13.50 96.31 13.50L96.31 13.50L96.31 13.50Q96.21 13.50 95.86 13.48L95.86 13.48L95.86 13.48Q95.52 13.47 94.81 13.47L94.81 13.47L94.81 13.47Q94.68 13.47 94.29 13.48L94.29 13.48L94.29 13.48Q93.90 13.50 93.62 13.50L93.62 13.50L93.62 13.50Q93.31 13.50 93.31 13.27L93.31 13.27L93.31 13.27Q93.31 13.15 93.49 13.11L93.49 13.11L93.49 13.11Q93.67 13.08 93.94 12.89L93.94 12.89L93.94 12.89Q94.21 12.71 94.35 12.21L94.35 12.21L94.35 12.21Q94.43 11.89 94.56 9.60L94.56 9.60L94.56 9.60Q94.68 7.32 94.68 6.45L94.68 6.45L94.68 6.45Q94.68 5.25 94.35 4.65L94.35 4.65L94.35 4.65Q94.01 4.06 93.25 3.98L93.25 3.98L93.25 3.98Q93.07 3.96 93.07 3.77ZM111.58 8.83L111.58 8.83L111.58 8.83Q111.58 7.31 112.19 6.09L112.19 6.09L112.19 6.09Q112.80 4.87 114.06 4.12L114.06 4.12L114.06 4.12Q115.32 3.37 117.05 3.37L117.05 3.37L117.05 3.37Q117.73 3.37 118.31 3.48L118.31 3.48L118.31 3.48Q118.90 3.58 119.28 3.72L119.28 3.72L119.28 3.72Q119.66 3.86 119.94 4.01L119.94 4.01L119.94 4.01Q120.22 4.16 120.36 4.26L120.36 4.26L120.36 4.26Q120.51 4.37 120.54 4.37L120.54 4.37L120.54 4.37Q120.58 4.37 120.73 4.26L120.73 4.26L120.73 4.26Q120.88 4.16 120.93 4.16L120.93 4.16L120.93 4.16Q121.14 4.16 121.14 4.44L121.14 4.44L121.14 4.44Q121.16 4.84 121.20 5.29L121.20 5.29L121.20 5.29Q121.25 5.74 121.30 6.03L121.30 6.03L121.30 6.03Q121.34 6.33 121.34 6.38L121.34 6.38L121.34 6.38Q121.34 6.62 121.17 6.62L121.17 6.62L121.17 6.62Q121.00 6.62 120.93 6.45L120.93 6.45L120.93 6.45Q120.44 5.39 119.29 4.65L119.29 4.65L119.29 4.65Q118.15 3.92 116.93 3.92L116.93 3.92L116.93 3.92Q115.18 3.92 114.04 5.02L114.04 5.02L114.04 5.02Q112.90 6.12 112.90 8.06L112.90 8.06L112.90 8.06Q112.90 9.35 113.37 10.49L113.37 10.49L113.37 10.49Q113.85 11.62 114.82 12.36L114.82 12.36L114.82 12.36Q115.79 13.10 117.05 13.10L117.05 13.10L117.05 13.10Q118.13 13.10 119.01 12.61L119.01 12.61L119.01 12.61Q119.88 12.12 119.98 11.49L119.98 11.49L119.98 11.49Q120.02 11.16 120.02 9.73L120.02 9.73L120.02 9.73Q120.02 9.18 119.78 8.95L119.78 8.95L119.78 8.95Q119.62 8.78 119.17 8.72L119.17 8.72L119.17 8.72Q118.75 8.68 118.68 8.55L118.68 8.55L118.68 8.55Q118.65 8.50 118.65 8.41L118.65 8.41L118.65 8.41Q118.65 8.26 118.90 8.26L118.90 8.26L118.90 8.26Q119.08 8.26 119.69 8.29L119.69 8.29L119.69 8.29Q120.29 8.33 120.46 8.33L120.46 8.33L120.46 8.33Q120.74 8.33 121.06 8.32L121.06 8.32L121.06 8.32Q121.38 8.32 121.58 8.32L121.58 8.32L121.79 8.32L121.79 8.32Q122.01 8.32 122.01 8.44L122.01 8.44L122.01 8.44Q122.01 8.54 121.65 8.69L121.65 8.69L121.65 8.69Q121.30 8.85 121.25 9.09L121.25 9.09L121.25 9.09Q121.16 9.69 121.16 10.65L121.16 10.65L121.16 10.65Q121.16 11.07 121.17 11.40L121.17 11.40L121.17 11.40Q121.18 11.72 121.19 11.85L121.19 11.85L121.19 11.85Q121.20 11.98 121.21 12.08L121.21 12.08L121.21 12.08Q121.23 12.18 121.23 12.22L121.23 12.22L121.23 12.22Q121.23 12.29 121.12 12.33L121.12 12.33L121.12 12.33Q121.02 12.36 120.78 12.42L120.78 12.42L120.78 12.42Q120.54 12.49 120.34 12.60L120.34 12.60L120.25 12.66L120.25 12.66Q120.15 12.73 120.05 12.78L120.05 12.78L120.05 12.78Q119.95 12.84 119.79 12.92L119.79 12.92L119.79 12.92Q119.63 13.01 119.46 13.09L119.46 13.09L119.46 13.09Q119.29 13.17 119.08 13.26L119.08 13.26L119.08 13.26Q118.87 13.36 118.65 13.43L118.65 13.43L118.65 13.43Q118.43 13.50 118.19 13.55L118.19 13.55L118.19 13.55Q117.95 13.61 117.69 13.64L117.69 13.64L117.69 13.64Q117.43 13.68 117.18 13.68L117.18 13.68L117.18 13.68Q115.65 13.68 114.53 13.26L114.53 13.26L114.53 13.26Q113.40 12.85 112.78 12.14L112.78 12.14L112.78 12.14Q112.17 11.44 111.87 10.61L111.87 10.61L111.87 10.61Q111.58 9.79 111.58 8.83ZM139.68 3.71L139.68 3.71L139.68 3.71Q139.68 3.46 140.06 3.46L140.06 3.46L140.06 3.46Q140.11 3.46 140.24 3.47L140.24 3.47L140.24 3.47Q140.36 3.49 140.43 3.49L140.43 3.49L140.43 3.49Q140.57 3.49 140.96 3.51L140.96 3.51L140.96 3.51Q141.34 3.54 141.65 3.54L141.65 3.54L141.65 3.54Q142.09 3.54 142.58 3.51L142.58 3.51L142.58 3.51Q143.07 3.49 143.12 3.49L143.12 3.49L143.12 3.49Q143.36 3.49 143.36 3.63L143.36 3.63L143.36 3.63Q143.36 3.82 143.19 3.88L143.19 3.88L143.19 3.88Q143.02 3.95 142.82 3.97L142.82 3.97L142.82 3.97Q142.62 3.99 142.43 4.28L142.43 4.28L142.43 4.28Q142.24 4.56 142.21 5.14L142.21 5.14L142.21 5.14Q142.18 5.68 142.14 8.19L142.14 8.19L142.14 8.19Q142.10 10.70 142.10 10.99L142.10 10.99L142.10 11.55L142.10 11.55Q142.10 12.56 142.44 12.66L142.44 12.66L142.44 12.66Q142.79 12.77 143.04 12.77L143.04 12.77L143.04 12.77Q144.09 12.77 144.88 12.67L144.88 12.67L144.88 12.67Q145.67 12.57 146.07 12.42L146.07 12.42L146.07 12.42Q146.47 12.28 146.73 12.10L146.73 12.10L146.73 12.10Q147 11.93 147.08 11.78L147.08 11.78L147.08 11.78Q147.15 11.63 147.23 11.54L147.23 11.54L147.23 11.54Q147.31 11.44 147.39 11.44L147.39 11.44L147.39 11.44Q147.56 11.44 147.56 11.68L147.56 11.68L147.56 11.68Q147.56 12.28 146.96 12.89L146.96 12.89L146.96 12.89Q146.36 13.51 145.91 13.51L145.91 13.51L145.91 13.51Q144.90 13.51 143.63 13.44L143.63 13.44L143.63 13.44Q142.37 13.37 142.06 13.37L142.06 13.37L142.06 13.37Q141.67 13.37 141.16 13.43L141.16 13.43L141.16 13.43Q140.64 13.48 140.31 13.48L140.31 13.48L140.31 13.48Q139.90 13.48 139.90 13.31L139.90 13.31L139.90 13.31Q139.90 13.22 139.98 13.15L139.98 13.15L139.98 13.15Q140.06 13.09 140.13 13.09L140.13 13.09L140.13 13.09Q140.34 13.09 140.53 12.95L140.53 12.95L140.53 12.95Q140.78 12.75 140.90 12.23L140.90 12.23L140.90 12.23Q141.01 11.70 141.01 10.21L141.01 10.21L141.01 8.47L141.01 8.47Q141.01 8.09 141.03 7.29L141.03 7.29L141.03 7.29Q141.05 6.50 141.05 6.05L141.05 6.05L141.05 6.05Q141.05 5.67 141.02 4.77L141.02 4.77L141.02 4.77Q141.01 4.37 140.67 4.14L140.67 4.14L140.67 4.14Q140.34 3.92 139.89 3.91L139.89 3.91L139.89 3.91Q139.75 3.91 139.71 3.86L139.71 3.86L139.71 3.86Q139.68 3.81 139.68 3.71ZM155.12 3.71L155.12 3.71L155.12 3.71Q155.12 3.50 155.51 3.50L155.51 3.50L155.51 3.50Q155.65 3.50 156.16 3.53L156.16 3.53L156.16 3.53Q156.66 3.56 157.09 3.56L157.09 3.56L157.09 3.56Q157.36 3.56 157.60 3.54L157.60 3.54L157.60 3.54Q157.85 3.53 158.33 3.53L158.33 3.53L158.33 3.53Q158.70 3.53 158.70 3.72L158.70 3.72L158.70 3.72Q158.70 3.84 158.06 4.10L158.06 4.10L158.06 4.10Q157.61 4.28 157.61 5.71L157.61 5.71L157.61 5.71Q157.61 7.60 157.59 9.05L157.59 9.05L157.59 9.05Q157.57 10.50 157.57 10.89L157.57 10.89L157.57 10.89Q157.57 12.07 157.92 12.59L157.92 12.59L157.92 12.59Q158.23 13.02 158.59 13.02L158.59 13.02L158.59 13.02Q158.62 13.02 158.73 13.03L158.73 13.03L158.73 13.03Q158.84 13.03 158.87 13.03L158.87 13.03L158.87 13.03Q158.97 13.03 159.07 13.08L159.07 13.08L159.07 13.08Q159.17 13.13 159.17 13.19L159.17 13.19L159.17 13.19Q159.17 13.34 159.09 13.39L159.09 13.39L159.09 13.39Q159.01 13.44 158.82 13.44L158.82 13.44L158.82 13.44Q158.40 13.44 158.04 13.41L158.04 13.41L158.04 13.41Q157.68 13.38 157.49 13.38L157.49 13.38L157.49 13.38Q157.09 13.38 156.63 13.42L156.63 13.42L156.63 13.42Q156.17 13.45 155.95 13.45L155.95 13.45L155.95 13.45Q155.32 13.45 155.32 13.24L155.32 13.24L155.32 13.24Q155.32 13.12 155.45 13.07L155.45 13.07L155.45 13.07Q155.58 13.02 155.75 13.00L155.75 13.00L155.75 13.00Q155.92 12.98 156.10 12.82L156.10 12.82L156.10 12.82Q156.28 12.66 156.35 12.35L156.35 12.35L156.35 12.35Q156.38 12.25 156.44 10.76L156.44 10.76L156.44 10.76Q156.51 9.27 156.51 8.61L156.51 8.61L156.51 7.81L156.51 7.81Q156.51 7.63 156.51 7.12L156.51 7.12L156.51 7.12Q156.52 6.61 156.52 6.30L156.52 6.30L156.52 5.66L156.52 5.66Q156.52 5.04 156.46 4.63L156.46 4.63L156.46 4.63Q156.42 4.30 156.09 4.12L156.09 4.12L156.09 4.12Q155.76 3.93 155.41 3.92L155.41 3.92L155.41 3.92Q155.12 3.91 155.12 3.71ZM166.71 3.68L166.71 3.68L166.71 3.68Q166.71 3.64 166.73 3.60L166.73 3.60L166.73 3.60Q166.75 3.56 166.85 3.50L166.85 3.50L166.85 3.50Q166.94 3.44 167.08 3.44L167.08 3.44L167.45 3.44L167.45 3.44Q167.79 3.44 168.54 3.49L168.54 3.49L168.54 3.49Q169.29 3.53 170.49 3.53L170.49 3.53L170.49 3.53Q171.49 3.53 172.26 3.49L172.26 3.49L172.26 3.49Q173.03 3.46 173.67 3.46L173.67 3.46L173.67 3.46Q173.91 3.46 173.91 3.79L173.91 3.79L173.91 3.79Q173.91 3.92 173.88 4.11L173.88 4.11L173.88 4.11Q173.85 4.30 173.80 4.61L173.80 4.61L173.80 4.61Q173.74 4.93 173.71 5.22L173.71 5.22L173.71 5.22Q173.68 5.50 173.50 5.50L173.50 5.50L173.50 5.50Q173.31 5.50 173.31 5.22L173.31 5.22L173.31 5.22Q173.31 4.30 172.66 4.26L172.66 4.26L172.66 4.26Q170.55 4.09 170.14 4.09L170.14 4.09L170.14 4.09Q169.51 4.09 169.37 4.24L169.37 4.24L169.37 4.24Q169.22 4.40 169.20 4.87L169.20 4.87L169.20 4.87Q169.20 4.94 169.20 4.98L169.20 4.98L169.20 4.98Q169.16 5.74 169.16 7.32L169.16 7.32L169.16 7.32Q169.16 8.01 169.41 8.02L169.41 8.02L169.41 8.02Q169.48 8.02 169.60 8.03L169.60 8.03L169.60 8.03Q169.72 8.04 169.76 8.04L169.76 8.04L169.76 8.04Q169.86 8.04 170.06 8.03L170.06 8.03L170.06 8.03Q170.25 8.02 170.37 8.02L170.37 8.02L170.80 8.02L170.80 8.02Q171.64 8.02 171.91 7.97L171.91 7.97L171.91 7.97Q172.19 7.92 172.41 7.77L172.41 7.77L172.41 7.77Q172.54 7.69 172.61 7.57L172.61 7.57L172.61 7.57Q172.68 7.46 172.70 7.31L172.70 7.31L172.70 7.31Q172.73 7.15 172.77 7.08L172.77 7.08L172.77 7.08Q172.82 7.01 172.94 7.01L172.94 7.01L172.94 7.01Q173.07 7.01 173.10 7.06L173.10 7.06L173.10 7.06Q173.12 7.10 173.12 7.24L173.12 7.24L173.12 7.24Q173.12 7.34 173.06 7.73L173.06 7.73L173.06 7.73Q173.00 8.12 173.00 8.40L173.00 8.40L173.00 8.40Q173.00 8.67 173.05 9.05L173.05 9.05L173.05 9.05Q173.10 9.44 173.10 9.55L173.10 9.55L173.10 9.55Q173.10 9.77 173.05 9.83L173.05 9.83L173.05 9.83Q173.00 9.90 172.90 9.90L172.90 9.90L172.90 9.90Q172.66 9.90 172.61 9.55L172.61 9.55L172.61 9.55Q172.61 9.52 172.59 9.42L172.59 9.42L172.59 9.42Q172.58 9.32 172.57 9.28L172.57 9.28L172.57 9.28Q172.56 9.24 172.54 9.16L172.54 9.16L172.54 9.16Q172.51 9.09 172.48 9.04L172.48 9.04L172.48 9.04Q172.45 9.00 172.41 8.95L172.41 8.95L172.41 8.95Q172.37 8.90 172.30 8.88L172.30 8.88L172.30 8.88Q172.10 8.79 171.60 8.74L171.60 8.74L171.60 8.74Q171.09 8.68 170.94 8.68L170.94 8.68L169.72 8.68L169.72 8.68Q169.15 8.68 169.15 8.95L169.15 8.95L169.15 8.95Q169.15 9.35 169.13 9.96L169.13 9.96L169.13 9.96Q169.12 10.57 169.12 10.96L169.12 10.96L169.12 10.96Q169.12 11.06 169.11 11.25L169.11 11.25L169.11 11.25Q169.11 11.44 169.11 11.52L169.11 11.52L169.11 11.52Q169.11 11.80 169.16 12.08L169.16 12.08L169.16 12.08Q169.22 12.36 169.49 12.67L169.49 12.67L169.49 12.67Q169.76 12.98 170.23 12.98L170.23 12.98L170.23 12.98Q170.65 12.98 170.65 13.23L170.65 13.23L170.65 13.23Q170.65 13.27 170.62 13.33L170.62 13.33L170.62 13.33Q170.59 13.38 170.49 13.44L170.49 13.44L170.49 13.44Q170.38 13.50 170.21 13.50L170.21 13.50L170.21 13.50Q169.99 13.50 169.51 13.44L169.51 13.44L169.51 13.44Q169.02 13.38 168.85 13.38L168.85 13.38L168.85 13.38Q168.46 13.38 167.98 13.43L167.98 13.43L167.98 13.43Q167.50 13.47 167.16 13.47L167.16 13.47L167.16 13.47Q166.88 13.47 166.88 13.31L166.88 13.31L166.88 13.31Q166.88 13.13 166.94 13.09L166.94 13.09L166.94 13.09Q167.01 13.05 167.48 12.88L167.48 12.88L167.48 12.88Q167.85 12.75 167.93 12.13L167.93 12.13L167.93 12.13Q168.01 11.51 168.03 9.60L168.03 9.60L168.03 9.60Q168.03 8.86 168.03 8.44L168.03 8.44L168.03 8.44Q168.03 8.06 168.05 7.26L168.05 7.26L168.05 7.26Q168.07 6.45 168.07 6.01L168.07 6.01L168.07 5.19L168.07 5.19Q168.07 4.27 167.41 3.96L167.41 3.96L167.41 3.96Q167.31 3.92 167.17 3.90L167.17 3.90L167.17 3.90Q167.03 3.88 166.94 3.88L166.94 3.88L166.94 3.88Q166.85 3.88 166.78 3.83L166.78 3.83L166.78 3.83Q166.71 3.78 166.71 3.68ZM181.47 3.65L181.47 3.65L181.47 3.65Q181.47 3.46 181.86 3.46L181.86 3.46L181.86 3.46Q181.92 3.46 182.04 3.47L182.04 3.47L182.04 3.47Q182.17 3.49 182.24 3.49L182.24 3.49L182.24 3.49Q182.28 3.49 183.55 3.52L183.55 3.52L183.55 3.52Q184.83 3.56 185.65 3.56L185.65 3.56L185.65 3.56Q185.95 3.56 187.10 3.53L187.10 3.53L187.10 3.53Q188.26 3.50 188.45 3.50L188.45 3.50L188.45 3.50Q188.72 3.50 188.72 3.82L188.72 3.82L188.72 3.82Q188.72 3.91 188.64 4.38L188.64 4.38L188.64 4.38Q188.55 4.84 188.55 5.25L188.55 5.25L188.55 5.25Q188.55 5.38 188.48 5.47L188.48 5.47L188.48 5.47Q188.41 5.56 188.33 5.56L188.33 5.56L188.33 5.56Q188.12 5.56 188.12 5.26L188.12 5.26L188.12 5.26Q188.12 4.89 187.88 4.58L187.88 4.58L187.88 4.58Q187.64 4.27 187.29 4.26L187.29 4.26L187.29 4.26Q186.03 4.16 185.36 4.16L185.36 4.16L185.00 4.16L185.00 4.16Q184.27 4.16 184.15 4.26L184.15 4.26L184.15 4.26Q184.03 4.37 184.00 5.01L184.00 5.01L184.00 5.01Q183.95 6.02 183.95 7.35L183.95 7.35L183.95 7.35Q183.95 8.05 184.21 8.06L184.21 8.06L184.56 8.06L185.15 8.06L185.58 8.06L185.58 8.06Q186.42 8.06 186.70 8.01L186.70 8.01L186.70 8.01Q186.98 7.95 187.21 7.80L187.21 7.80L187.21 7.80Q187.47 7.62 187.53 7.28L187.53 7.28L187.53 7.28Q187.57 7.04 187.73 7.04L187.73 7.04L187.73 7.04Q187.85 7.04 187.88 7.08L187.88 7.08L187.88 7.08Q187.91 7.13 187.91 7.27L187.91 7.27L187.91 7.27Q187.91 7.36 187.85 7.91L187.85 7.91L187.85 7.91Q187.80 8.46 187.80 8.74L187.80 8.74L187.80 8.74Q187.80 9.00 187.82 9.24L187.82 9.24L187.82 9.24Q187.84 9.48 187.84 9.59L187.84 9.59L187.84 9.59Q187.84 9.94 187.74 9.94L187.74 9.94L187.74 9.94Q187.53 9.94 187.43 9.60L187.43 9.60L187.43 9.60Q187.24 9.02 187.08 8.92L187.08 8.92L187.08 8.92Q186.79 8.72 185.74 8.72L185.74 8.72L185.74 8.72Q185.32 8.72 185.06 8.72L185.06 8.72L185.06 8.72Q184.80 8.72 184.72 8.71L184.72 8.71L184.72 8.71Q184.65 8.71 184.60 8.71L184.60 8.71L184.60 8.71Q184.55 8.71 184.51 8.71L184.51 8.71L184.51 8.71Q183.93 8.71 183.93 8.97L183.93 8.97L183.93 8.97Q183.93 9.38 183.92 9.99L183.92 9.99L183.92 9.99Q183.90 10.60 183.90 10.99L183.90 10.99L183.90 11.55L183.90 11.55Q183.90 12.56 184.24 12.66L184.24 12.66L184.24 12.66Q184.59 12.77 184.84 12.77L184.84 12.77L184.84 12.77Q185.89 12.77 186.68 12.67L186.68 12.67L186.68 12.67Q187.47 12.57 187.87 12.42L187.87 12.42L187.87 12.42Q188.27 12.28 188.54 12.10L188.54 12.10L188.54 12.10Q188.80 11.93 188.88 11.78L188.88 11.78L188.88 11.78Q188.96 11.63 189.04 11.54L189.04 11.54L189.04 11.54Q189.11 11.44 189.20 11.44L189.20 11.44L189.20 11.44Q189.36 11.44 189.36 11.68L189.36 11.68L189.36 11.68Q189.36 12.28 188.76 12.89L188.76 12.89L188.76 12.89Q188.16 13.51 187.71 13.51L187.71 13.51L187.71 13.51Q186.70 13.51 185.44 13.44L185.44 13.44L185.44 13.44Q184.17 13.37 183.86 13.37L183.86 13.37L183.86 13.37Q183.47 13.37 182.88 13.43L182.88 13.43L182.88 13.43Q182.29 13.50 181.96 13.50L181.96 13.50L181.96 13.50Q181.66 13.50 181.66 13.36L181.66 13.36L181.66 13.36Q181.66 13.23 181.66 13.19L181.66 13.19L181.66 13.19Q181.66 13.15 181.71 13.12L181.71 13.12L181.71 13.12Q181.75 13.09 181.80 13.08L181.80 13.08L181.80 13.08Q181.85 13.08 181.98 13.03L181.98 13.03L181.98 13.03Q182.11 12.99 182.27 12.92L182.27 12.92L182.27 12.92Q182.60 12.75 182.71 12.26L182.71 12.26L182.71 12.26Q182.81 11.77 182.81 10.21L182.81 10.21L182.81 8.47L182.81 8.47Q182.81 8.09 182.83 7.29L182.83 7.29L182.83 7.29Q182.85 6.50 182.85 6.05L182.85 6.05L182.85 6.05Q182.85 5.67 182.83 4.77L182.83 4.77L182.83 4.77Q182.81 4.37 182.48 4.14L182.48 4.14L182.48 4.14Q182.14 3.92 181.69 3.91L181.69 3.91L181.69 3.91Q181.47 3.91 181.47 3.65ZM206.91 5.32L206.91 5.32L206.91 5.32Q206.91 4.76 207.05 3.88L207.05 3.88L207.05 3.88Q207.05 3.85 207.05 3.78L207.05 3.78L207.05 3.78Q207.06 3.71 207.07 3.69L207.07 3.69L207.07 3.69Q207.07 3.67 207.08 3.62L207.08 3.62L207.08 3.62Q207.09 3.57 207.10 3.55L207.10 3.55L207.10 3.55Q207.12 3.53 207.14 3.49L207.14 3.49L207.14 3.49Q207.16 3.46 207.19 3.44L207.19 3.44L207.19 3.44Q207.21 3.43 207.26 3.42L207.26 3.42L207.26 3.42Q207.30 3.40 207.35 3.39L207.35 3.39L207.35 3.39Q207.41 3.39 207.48 3.39L207.48 3.39L207.48 3.39Q207.70 3.39 208.66 3.44L208.66 3.44L208.66 3.44Q209.62 3.50 211.43 3.50L211.43 3.50L211.43 3.50Q214.51 3.50 215.74 3.43L215.74 3.43L215.74 3.43Q215.75 3.43 215.79 3.42L215.79 3.42L215.79 3.42Q215.82 3.42 215.84 3.42L215.84 3.42L215.84 3.42Q215.99 3.42 216.05 3.50L216.05 3.50L216.05 3.50Q216.10 3.58 216.10 3.65L216.10 3.65L216.10 3.65Q216.10 3.75 216.15 4.24L216.15 4.24L216.15 4.24Q216.19 4.73 216.19 4.79L216.19 4.79L216.19 4.79Q216.19 5.14 216.15 5.23L216.15 5.23L216.15 5.23Q216.10 5.32 215.96 5.32L215.96 5.32L215.96 5.32Q215.85 5.32 215.81 5.15L215.81 5.15L215.81 5.15Q215.70 4.75 215.61 4.60L215.61 4.60L215.61 4.60Q215.53 4.45 215.25 4.34L215.25 4.34L215.25 4.34Q214.97 4.23 214.40 4.23L214.40 4.23L212.58 4.23L212.58 4.23Q212.24 4.23 212.16 4.36L212.16 4.36L212.16 4.36Q212.09 4.49 212.09 5.12L212.09 5.12L212.09 5.81L212.09 5.81Q212.09 7.69 212.06 9.11L212.06 9.11L212.06 9.11Q212.04 10.54 212.04 10.93L212.04 10.93L212.04 10.93Q212.04 11.13 212.04 11.43L212.04 11.43L212.04 11.43Q212.03 11.73 212.03 11.84L212.03 11.84L212.03 11.84Q212.03 12.45 212.23 12.64L212.23 12.64L212.23 12.64Q212.41 12.81 212.63 12.90L212.63 12.90L212.63 12.90Q212.86 12.99 213.02 13.01L213.02 13.01L213.02 13.01Q213.18 13.02 213.29 13.08L213.29 13.08L213.29 13.08Q213.40 13.13 213.40 13.26L213.40 13.26L213.40 13.26Q213.40 13.41 213.33 13.45L213.33 13.45L213.33 13.45Q213.26 13.50 213.07 13.50L213.07 13.50L213.07 13.50Q212.90 13.50 212.32 13.44L212.32 13.44L212.32 13.44Q211.75 13.38 211.51 13.38L211.51 13.38L211.51 13.38Q211.34 13.38 210.83 13.43L210.83 13.43L210.83 13.43Q210.32 13.48 210.08 13.48L210.08 13.48L210.08 13.48Q209.57 13.48 209.57 13.26L209.57 13.26L209.57 13.26Q209.57 13.12 209.65 13.07L209.65 13.07L209.65 13.07Q209.73 13.02 209.98 12.98L209.98 12.98L209.98 12.98Q210.22 12.95 210.29 12.94L210.29 12.94L210.29 12.94Q210.77 12.82 210.83 12.38L210.83 12.38L210.83 12.38Q210.97 11.14 210.97 7.08L210.97 7.08L210.95 4.58L210.95 4.58Q210.95 4.31 210.80 4.25L210.80 4.25L210.80 4.25Q210.64 4.19 209.89 4.19L209.89 4.19L209.89 4.19Q208.91 4.19 208.41 4.24L208.41 4.24L208.41 4.24Q207.91 4.30 207.83 4.35L207.83 4.35L207.83 4.35Q207.75 4.40 207.63 4.54L207.63 4.54L207.63 4.54Q207.51 4.70 207.43 4.91L207.43 4.91L207.43 4.91Q207.35 5.11 207.33 5.24L207.33 5.24L207.33 5.24Q207.31 5.38 207.25 5.47L207.25 5.47L207.25 5.47Q207.19 5.56 207.06 5.56L207.06 5.56L207.06 5.56Q206.91 5.56 206.91 5.32ZM224.08 8.69L224.08 8.69L224.08 8.69Q224.08 6.34 225.50 4.84L225.50 4.84L225.50 4.84Q226.91 3.33 229.50 3.33L229.50 3.33L229.50 3.33Q230.71 3.33 231.67 3.68L231.67 3.68L231.67 3.68Q232.64 4.03 233.20 4.54L233.20 4.54L233.20 4.54Q233.76 5.05 234.14 5.71L234.14 5.71L234.14 5.71Q234.51 6.37 234.65 6.92L234.65 6.92L234.65 6.92Q234.79 7.48 234.79 7.95L234.79 7.95L234.79 7.95Q234.79 9.86 234.05 11.16L234.05 11.16L234.05 11.16Q233.31 12.47 232.10 13.07L232.10 13.07L232.10 13.07Q230.89 13.66 229.31 13.66L229.31 13.66L229.31 13.66Q227.64 13.66 226.43 12.94L226.43 12.94L226.43 12.94Q225.22 12.21 224.65 11.10L224.65 11.10L224.65 11.10Q224.08 10.00 224.08 8.69ZM225.32 7.98L225.32 7.98L225.32 7.98Q225.32 8.54 225.47 9.19L225.47 9.19L225.47 9.19Q225.62 9.84 225.97 10.54L225.97 10.54L225.97 10.54Q226.32 11.23 226.82 11.78L226.82 11.78L226.82 11.78Q227.32 12.33 228.08 12.69L228.08 12.69L228.08 12.69Q228.84 13.05 229.75 13.05L229.75 13.05L229.75 13.05Q230.23 13.05 230.76 12.90L230.76 12.90L230.76 12.90Q231.28 12.75 231.80 12.45L231.80 12.45L231.80 12.45Q232.32 12.14 232.72 11.70L232.72 11.70L232.72 11.70Q233.13 11.26 233.39 10.62L233.39 10.62L233.39 10.62Q233.65 9.98 233.65 9.24L233.65 9.24L233.65 9.24Q233.65 6.71 232.32 5.30L232.32 5.30L232.32 5.30Q230.99 3.89 229.03 3.89L229.03 3.89L229.03 3.89Q227.49 3.89 226.40 4.93L226.40 4.93L226.40 4.93Q225.32 5.96 225.32 7.98ZM252.67 3.64L252.67 3.64L252.67 3.64Q252.67 3.51 252.79 3.49L252.79 3.49L252.79 3.49Q252.91 3.47 253.39 3.47L253.39 3.47L254.60 3.47L254.60 3.47Q254.95 3.47 255.89 3.44L255.89 3.44L255.89 3.44Q256.83 3.42 257.33 3.42L257.33 3.42L257.33 3.42Q258.30 3.42 259.27 3.71L259.27 3.71L259.27 3.71Q260.23 4.00 261.04 4.56L261.04 4.56L261.04 4.56Q261.86 5.11 262.36 6.00L262.36 6.00L262.36 6.00Q262.86 6.89 262.86 7.98L262.86 7.98L262.86 7.98Q262.86 8.96 262.73 9.68L262.73 9.68L262.73 9.68Q262.60 10.40 262.29 10.93L262.29 10.93L262.29 10.93Q261.98 11.45 261.67 11.78L261.67 11.78L261.67 11.78Q261.37 12.11 260.83 12.56L260.83 12.56L260.83 12.56Q260.41 12.89 259.62 13.19L259.62 13.19L259.62 13.19Q258.82 13.48 257.98 13.48L257.98 13.48L257.98 13.48Q257.89 13.48 256.55 13.45L256.55 13.45L256.55 13.45Q255.21 13.41 254.62 13.41L254.62 13.41L254.62 13.41Q254.13 13.41 253.71 13.45L253.71 13.45L253.71 13.45Q253.29 13.48 253.22 13.48L253.22 13.48L253.22 13.48Q252.88 13.48 252.88 13.30L252.88 13.30L252.88 13.30Q252.88 13.19 252.93 13.14L252.93 13.14L252.93 13.14Q252.98 13.09 253.14 13.05L253.14 13.05L253.14 13.05Q253.30 13.01 253.37 12.98L253.37 12.98L253.37 12.98Q253.60 12.88 253.79 12.61L253.79 12.61L253.79 12.61Q253.97 12.33 253.97 12.07L253.97 12.07L253.97 12.07Q253.97 11.28 253.98 10.07L253.98 10.07L253.98 10.07Q253.99 8.85 253.99 8.27L253.99 8.27L253.99 8.27Q253.99 7.77 253.98 6.70L253.98 6.70L253.98 6.70Q253.97 5.63 253.97 4.72L253.97 4.72L253.97 4.72Q253.97 4.48 253.74 4.23L253.74 4.23L253.74 4.23Q253.51 3.99 253.23 3.98L253.23 3.98L253.23 3.98Q253.04 3.96 252.95 3.95L252.95 3.95L252.95 3.95Q252.85 3.93 252.76 3.86L252.76 3.86L252.76 3.86Q252.67 3.78 252.67 3.64ZM255.15 11.47L255.15 11.47L255.15 11.47Q255.15 11.73 255.16 11.90L255.16 11.90L255.16 11.90Q255.16 12.07 255.21 12.21L255.21 12.21L255.21 12.21Q255.26 12.35 255.29 12.40L255.29 12.40L255.29 12.40Q255.32 12.46 255.46 12.53L255.46 12.53L255.46 12.53Q255.60 12.60 255.68 12.62L255.68 12.62L255.68 12.62Q255.75 12.64 256.00 12.71L256.00 12.71L256.00 12.71Q256.26 12.78 256.42 12.82L256.42 12.82L256.42 12.82Q256.91 12.96 257.45 12.96L257.45 12.96L257.73 12.96L257.73 12.96Q258.68 12.96 259.35 12.69L259.35 12.69L259.35 12.69Q260.02 12.42 260.64 11.83L260.64 11.83L260.64 11.83Q261.67 10.84 261.67 8.61L261.67 8.61L261.67 8.61Q261.67 7.49 261.23 6.58L261.23 6.58L261.23 6.58Q260.79 5.67 260.08 5.13L260.08 5.13L260.08 5.13Q259.36 4.59 258.54 4.30L258.54 4.30L258.54 4.30Q257.71 4.02 256.87 4.02L256.87 4.02L256.87 4.02Q256.49 4.02 256.32 4.02L256.32 4.02L256.32 4.02Q256.14 4.02 255.91 4.05L255.91 4.05L255.91 4.05Q255.68 4.09 255.61 4.11L255.61 4.11L255.61 4.11Q255.53 4.13 255.42 4.25L255.42 4.25L255.42 4.25Q255.30 4.37 255.28 4.45L255.28 4.45L255.28 4.45Q255.26 4.54 255.23 4.78L255.23 4.78L255.23 4.78Q255.19 5.03 255.19 5.21L255.19 5.21L255.19 5.21Q255.19 5.39 255.19 5.80L255.19 5.80L255.19 5.80Q255.19 6.10 255.18 7.24L255.18 7.24L255.18 7.24Q255.16 8.39 255.16 8.48L255.16 8.48L255.16 8.48Q255.16 9.32 255.16 10.30L255.16 10.30L255.16 10.30Q255.15 11.28 255.15 11.47ZM270.76 3.65L270.76 3.65L270.76 3.65Q270.76 3.46 271.15 3.46L271.15 3.46L271.15 3.46Q271.21 3.46 271.33 3.47L271.33 3.47L271.33 3.47Q271.46 3.49 271.53 3.49L271.53 3.49L271.53 3.49Q271.57 3.49 272.85 3.52L272.85 3.52L272.85 3.52Q274.12 3.56 274.95 3.56L274.95 3.56L274.95 3.56Q275.24 3.56 276.40 3.53L276.40 3.53L276.40 3.53Q277.55 3.50 277.75 3.50L277.75 3.50L277.75 3.50Q278.01 3.50 278.01 3.82L278.01 3.82L278.01 3.82Q278.01 3.91 277.93 4.38L277.93 4.38L277.93 4.38Q277.84 4.84 277.84 5.25L277.84 5.25L277.84 5.25Q277.84 5.38 277.77 5.47L277.77 5.47L277.77 5.47Q277.70 5.56 277.62 5.56L277.62 5.56L277.62 5.56Q277.41 5.56 277.41 5.26L277.41 5.26L277.41 5.26Q277.41 4.89 277.17 4.58L277.17 4.58L277.17 4.58Q276.93 4.27 276.58 4.26L276.58 4.26L276.58 4.26Q275.32 4.16 274.65 4.16L274.65 4.16L274.29 4.16L274.29 4.16Q273.56 4.16 273.44 4.26L273.44 4.26L273.44 4.26Q273.32 4.37 273.29 5.01L273.29 5.01L273.29 5.01Q273.24 6.02 273.24 7.35L273.24 7.35L273.24 7.35Q273.24 8.05 273.50 8.06L273.50 8.06L273.85 8.06L274.44 8.06L274.88 8.06L274.88 8.06Q275.72 8.06 276.00 8.01L276.00 8.01L276.00 8.01Q276.28 7.95 276.50 7.80L276.50 7.80L276.50 7.80Q276.77 7.62 276.82 7.28L276.82 7.28L276.82 7.28Q276.86 7.04 277.02 7.04L277.02 7.04L277.02 7.04Q277.14 7.04 277.17 7.08L277.17 7.08L277.17 7.08Q277.20 7.13 277.20 7.27L277.20 7.27L277.20 7.27Q277.20 7.36 277.14 7.91L277.14 7.91L277.14 7.91Q277.09 8.46 277.09 8.74L277.09 8.74L277.09 8.74Q277.09 9.00 277.11 9.24L277.11 9.24L277.11 9.24Q277.13 9.48 277.13 9.59L277.13 9.59L277.13 9.59Q277.13 9.94 277.03 9.94L277.03 9.94L277.03 9.94Q276.82 9.94 276.72 9.60L276.72 9.60L276.72 9.60Q276.53 9.02 276.37 8.92L276.37 8.92L276.37 8.92Q276.08 8.72 275.03 8.72L275.03 8.72L275.03 8.72Q274.61 8.72 274.35 8.72L274.35 8.72L274.35 8.72Q274.09 8.72 274.02 8.71L274.02 8.71L274.02 8.71Q273.94 8.71 273.89 8.71L273.89 8.71L273.89 8.71Q273.84 8.71 273.80 8.71L273.80 8.71L273.80 8.71Q273.22 8.71 273.22 8.97L273.22 8.97L273.22 8.97Q273.22 9.38 273.21 9.99L273.21 9.99L273.21 9.99Q273.20 10.60 273.20 10.99L273.20 10.99L273.20 11.55L273.20 11.55Q273.20 12.56 273.53 12.66L273.53 12.66L273.53 12.66Q273.88 12.77 274.13 12.77L274.13 12.77L274.13 12.77Q275.18 12.77 275.98 12.67L275.98 12.67L275.98 12.67Q276.77 12.57 277.17 12.42L277.17 12.42L277.17 12.42Q277.56 12.28 277.83 12.10L277.83 12.10L277.83 12.10Q278.10 11.93 278.17 11.78L278.17 11.78L278.17 11.78Q278.25 11.63 278.33 11.54L278.33 11.54L278.33 11.54Q278.40 11.44 278.49 11.44L278.49 11.44L278.49 11.44Q278.66 11.44 278.66 11.68L278.66 11.68L278.66 11.68Q278.66 12.28 278.05 12.89L278.05 12.89L278.05 12.89Q277.45 13.51 277.00 13.51L277.00 13.51L277.00 13.51Q276.00 13.51 274.73 13.44L274.73 13.44L274.73 13.44Q273.46 13.37 273.15 13.37L273.15 13.37L273.15 13.37Q272.76 13.37 272.17 13.43L272.17 13.43L272.17 13.43Q271.59 13.50 271.25 13.50L271.25 13.50L271.25 13.50Q270.96 13.50 270.96 13.36L270.96 13.36L270.96 13.36Q270.96 13.23 270.96 13.19L270.96 13.19L270.96 13.19Q270.96 13.15 271.00 13.12L271.00 13.12L271.00 13.12Q271.04 13.09 271.09 13.08L271.09 13.08L271.09 13.08Q271.14 13.08 271.27 13.03L271.27 13.03L271.27 13.03Q271.40 12.99 271.56 12.92L271.56 12.92L271.56 12.92Q271.89 12.75 272.00 12.26L272.00 12.26L272.00 12.26Q272.10 11.77 272.10 10.21L272.10 10.21L272.10 8.47L272.10 8.47Q272.10 8.09 272.13 7.29L272.13 7.29L272.13 7.29Q272.15 6.50 272.15 6.05L272.15 6.05L272.15 6.05Q272.15 5.67 272.12 4.77L272.12 4.77L272.12 4.77Q272.10 4.37 271.77 4.14L271.77 4.14L271.77 4.14Q271.43 3.92 270.98 3.91L270.98 3.91L270.98 3.91Q270.76 3.91 270.76 3.65ZM286.22 13.33L286.22 13.33L286.22 13.33Q286.22 13.13 286.43 13.06L286.43 13.06L286.43 13.06Q286.87 12.89 287.21 12.31L287.21 12.31L287.21 12.31Q287.55 11.73 288.88 8.83L288.88 8.83L288.88 8.83Q290.25 5.87 291.30 3.63L291.30 3.63L291.30 3.63Q291.40 3.42 291.47 3.36L291.47 3.36L291.47 3.36Q291.55 3.30 291.72 3.30L291.72 3.30L291.72 3.30Q291.84 3.30 291.89 3.36L291.89 3.36L291.89 3.36Q291.93 3.42 292.07 3.82L292.07 3.82L292.07 3.82Q292.15 4.06 292.22 4.23L292.22 4.23L292.22 4.23Q292.28 4.40 292.42 4.77L292.42 4.77L292.42 4.77Q292.56 5.15 292.73 5.56L292.73 5.56L292.73 5.56Q293.17 6.66 294.27 9.22L294.27 9.22L294.27 9.22Q295.37 11.77 295.47 11.98L295.47 11.98L295.47 11.98Q295.71 12.46 296.00 12.71L296.00 12.71L296.00 12.71Q296.30 12.95 296.51 12.97L296.51 12.97L296.51 12.97Q296.73 12.99 296.88 13.04L296.88 13.04L296.88 13.04Q297.02 13.09 297.02 13.26L297.02 13.26L297.02 13.26Q297.02 13.47 296.65 13.47L296.65 13.47L296.65 13.47Q296.49 13.47 296.04 13.43L296.04 13.43L296.04 13.43Q295.60 13.38 295.39 13.38L295.39 13.38L295.39 13.38Q295.12 13.38 294.70 13.41L294.70 13.41L294.70 13.41Q294.28 13.44 294.08 13.44L294.08 13.44L294.08 13.44Q293.65 13.44 293.53 13.40L293.53 13.40L293.53 13.40Q293.41 13.37 293.41 13.24L293.41 13.24L293.41 13.24Q293.41 13.15 293.52 13.08L293.52 13.08L293.52 13.08Q293.64 13.02 293.76 13.00L293.76 13.00L293.76 13.00Q293.89 12.98 294.00 12.87L294.00 12.87L294.00 12.87Q294.11 12.77 294.11 12.59L294.11 12.59L294.11 12.59Q294.11 12.28 293.76 11.33L293.76 11.33L293.76 11.33Q293.41 10.37 293.17 9.93L293.17 9.93L293.17 9.93Q293.05 9.69 292.60 9.69L292.60 9.69L292.60 9.69Q292.53 9.69 291.98 9.70L291.98 9.70L291.98 9.70Q291.44 9.72 290.91 9.72L290.91 9.72L290.16 9.72L290.16 9.72Q289.53 9.72 289.37 9.79L289.37 9.79L289.37 9.79Q289.21 9.86 289.09 10.12L289.09 10.12L289.09 10.12Q289.00 10.30 288.81 10.70L288.81 10.70L288.81 10.70Q288.61 11.10 288.54 11.26L288.54 11.26L288.54 11.26Q288.47 11.41 288.37 11.65L288.37 11.65L288.37 11.65Q288.26 11.90 288.23 12.05L288.23 12.05L288.23 12.05Q288.19 12.19 288.19 12.31L288.19 12.31L288.19 12.31Q288.19 12.63 288.35 12.80L288.35 12.80L288.35 12.80Q288.51 12.96 288.71 12.98L288.71 12.98L288.71 12.98Q288.90 13.01 289.07 13.06L289.07 13.06L289.07 13.06Q289.23 13.12 289.23 13.26L289.23 13.26L289.23 13.26Q289.23 13.36 289.18 13.40L289.18 13.40L289.18 13.40Q289.14 13.45 288.99 13.45L288.99 13.45L288.99 13.45Q288.90 13.45 288.51 13.45L288.51 13.45L288.51 13.45Q288.11 13.44 287.83 13.44L287.83 13.44L287.83 13.44Q287.52 13.44 287.13 13.47L287.13 13.47L287.13 13.47Q286.75 13.50 286.62 13.50L286.62 13.50L286.62 13.50Q286.22 13.50 286.22 13.33ZM289.73 8.71L289.73 8.71L289.73 8.71Q289.73 8.89 289.86 8.93L289.86 8.93L289.86 8.93Q289.98 8.97 290.44 8.97L290.44 8.97L290.88 8.97L292.21 8.96L292.21 8.96Q292.75 8.96 292.75 8.74L292.75 8.74L292.75 8.74Q292.75 8.55 292.07 7.01L292.07 7.01L292.07 7.01Q291.38 5.46 291.20 5.46L291.20 5.46L291.20 5.46Q291.07 5.46 290.40 7.01L290.40 7.01L290.40 7.01Q289.73 8.55 289.73 8.71ZM304.58 3.64L304.58 3.64L304.58 3.64Q304.58 3.51 304.70 3.49L304.70 3.49L304.70 3.49Q304.82 3.47 305.30 3.47L305.30 3.47L306.52 3.47L306.52 3.47Q306.87 3.47 307.80 3.44L307.80 3.44L307.80 3.44Q308.74 3.42 309.25 3.42L309.25 3.42L309.25 3.42Q310.21 3.42 311.18 3.71L311.18 3.71L311.18 3.71Q312.14 4.00 312.96 4.56L312.96 4.56L312.96 4.56Q313.77 5.11 314.27 6.00L314.27 6.00L314.27 6.00Q314.78 6.89 314.78 7.98L314.78 7.98L314.78 7.98Q314.78 8.96 314.64 9.68L314.64 9.68L314.64 9.68Q314.51 10.40 314.20 10.93L314.20 10.93L314.20 10.93Q313.89 11.45 313.59 11.78L313.59 11.78L313.59 11.78Q313.28 12.11 312.75 12.56L312.75 12.56L312.75 12.56Q312.33 12.89 311.53 13.19L311.53 13.19L311.53 13.19Q310.73 13.48 309.89 13.48L309.89 13.48L309.89 13.48Q309.81 13.48 308.46 13.45L308.46 13.45L308.46 13.45Q307.12 13.41 306.53 13.41L306.53 13.41L306.53 13.41Q306.04 13.41 305.62 13.45L305.62 13.45L305.62 13.45Q305.20 13.48 305.13 13.48L305.13 13.48L305.13 13.48Q304.79 13.48 304.79 13.30L304.79 13.30L304.79 13.30Q304.79 13.19 304.84 13.14L304.84 13.14L304.84 13.14Q304.89 13.09 305.05 13.05L305.05 13.05L305.05 13.05Q305.21 13.01 305.28 12.98L305.28 12.98L305.28 12.98Q305.51 12.88 305.70 12.61L305.70 12.61L305.70 12.61Q305.89 12.33 305.89 12.07L305.89 12.07L305.89 12.07Q305.89 11.28 305.89 10.07L305.89 10.07L305.89 10.07Q305.90 8.85 305.90 8.27L305.90 8.27L305.90 8.27Q305.90 7.77 305.89 6.70L305.89 6.70L305.89 6.70Q305.89 5.63 305.89 4.72L305.89 4.72L305.89 4.72Q305.89 4.48 305.66 4.23L305.66 4.23L305.66 4.23Q305.42 3.99 305.14 3.98L305.14 3.98L305.14 3.98Q304.95 3.96 304.86 3.95L304.86 3.95L304.86 3.95Q304.77 3.93 304.68 3.86L304.68 3.86L304.68 3.86Q304.58 3.78 304.58 3.64ZM307.06 11.47L307.06 11.47L307.06 11.47Q307.06 11.73 307.07 11.90L307.07 11.90L307.07 11.90Q307.08 12.07 307.13 12.21L307.13 12.21L307.13 12.21Q307.17 12.35 307.20 12.40L307.20 12.40L307.20 12.40Q307.23 12.46 307.37 12.53L307.37 12.53L307.37 12.53Q307.51 12.60 307.59 12.62L307.59 12.62L307.59 12.62Q307.66 12.64 307.92 12.71L307.92 12.71L307.92 12.71Q308.17 12.78 308.34 12.82L308.34 12.82L308.34 12.82Q308.83 12.96 309.36 12.96L309.36 12.96L309.64 12.96L309.64 12.96Q310.59 12.96 311.26 12.69L311.26 12.69L311.26 12.69Q311.93 12.42 312.55 11.83L312.55 11.83L312.55 11.83Q313.59 10.84 313.59 8.61L313.59 8.61L313.59 8.61Q313.59 7.49 313.15 6.58L313.15 6.58L313.15 6.58Q312.70 5.67 311.99 5.13L311.99 5.13L311.99 5.13Q311.28 4.59 310.45 4.30L310.45 4.30L310.45 4.30Q309.62 4.02 308.78 4.02L308.78 4.02L308.78 4.02Q308.41 4.02 308.23 4.02L308.23 4.02L308.23 4.02Q308.06 4.02 307.83 4.05L307.83 4.05L307.83 4.05Q307.59 4.09 307.52 4.11L307.52 4.11L307.52 4.11Q307.44 4.13 307.33 4.25L307.33 4.25L307.33 4.25Q307.22 4.37 307.20 4.45L307.20 4.45L307.20 4.45Q307.17 4.54 307.14 4.78L307.14 4.78L307.14 4.78Q307.10 5.03 307.10 5.21L307.10 5.21L307.10 5.21Q307.10 5.39 307.10 5.80L307.10 5.80L307.10 5.80Q307.10 6.10 307.09 7.24L307.09 7.24L307.09 7.24Q307.08 8.39 307.08 8.48L307.08 8.48L307.08 8.48Q307.08 9.32 307.07 10.30L307.07 10.30L307.07 10.30Q307.06 11.28 307.06 11.47ZM332.65 5.32L332.65 5.32L332.65 5.32Q332.65 4.76 332.79 3.88L332.79 3.88L332.79 3.88Q332.79 3.85 332.80 3.78L332.80 3.78L332.80 3.78Q332.81 3.71 332.82 3.69L332.82 3.69L332.82 3.69Q332.82 3.67 332.83 3.62L332.83 3.62L332.83 3.62Q332.84 3.57 332.85 3.55L332.85 3.55L332.85 3.55Q332.86 3.53 332.89 3.49L332.89 3.49L332.89 3.49Q332.91 3.46 332.93 3.44L332.93 3.44L332.93 3.44Q332.96 3.43 333.00 3.42L333.00 3.42L333.00 3.42Q333.05 3.40 333.10 3.39L333.10 3.39L333.10 3.39Q333.16 3.39 333.23 3.39L333.23 3.39L333.23 3.39Q333.45 3.39 334.41 3.44L334.41 3.44L334.41 3.44Q335.37 3.50 337.18 3.50L337.18 3.50L337.18 3.50Q340.26 3.50 341.49 3.43L341.49 3.43L341.49 3.43Q341.50 3.43 341.54 3.42L341.54 3.42L341.54 3.42Q341.57 3.42 341.59 3.42L341.59 3.42L341.59 3.42Q341.74 3.42 341.80 3.50L341.80 3.50L341.80 3.50Q341.85 3.58 341.85 3.65L341.85 3.65L341.85 3.65Q341.85 3.75 341.89 4.24L341.89 4.24L341.89 4.24Q341.94 4.73 341.94 4.79L341.94 4.79L341.94 4.79Q341.94 5.14 341.89 5.23L341.89 5.23L341.89 5.23Q341.85 5.32 341.71 5.32L341.71 5.32L341.71 5.32Q341.60 5.32 341.56 5.15L341.56 5.15L341.56 5.15Q341.45 4.75 341.36 4.60L341.36 4.60L341.36 4.60Q341.28 4.45 341.00 4.34L341.00 4.34L341.00 4.34Q340.72 4.23 340.14 4.23L340.14 4.23L338.32 4.23L338.32 4.23Q337.99 4.23 337.91 4.36L337.91 4.36L337.91 4.36Q337.83 4.49 337.83 5.12L337.83 5.12L337.83 5.81L337.83 5.81Q337.83 7.69 337.81 9.11L337.81 9.11L337.81 9.11Q337.79 10.54 337.79 10.93L337.79 10.93L337.79 10.93Q337.79 11.13 337.79 11.43L337.79 11.43L337.79 11.43Q337.78 11.73 337.78 11.84L337.78 11.84L337.78 11.84Q337.78 12.45 337.97 12.64L337.97 12.64L337.97 12.64Q338.16 12.81 338.38 12.90L338.38 12.90L338.38 12.90Q338.60 12.99 338.77 13.01L338.77 13.01L338.77 13.01Q338.93 13.02 339.04 13.08L339.04 13.08L339.04 13.08Q339.15 13.13 339.15 13.26L339.15 13.26L339.15 13.26Q339.15 13.41 339.08 13.45L339.08 13.45L339.08 13.45Q339.01 13.50 338.81 13.50L338.81 13.50L338.81 13.50Q338.65 13.50 338.07 13.44L338.07 13.44L338.07 13.44Q337.50 13.38 337.26 13.38L337.26 13.38L337.26 13.38Q337.09 13.38 336.58 13.43L336.58 13.43L336.58 13.43Q336.07 13.48 335.83 13.48L335.83 13.48L335.83 13.48Q335.31 13.48 335.31 13.26L335.31 13.26L335.31 13.26Q335.31 13.12 335.40 13.07L335.40 13.07L335.40 13.07Q335.48 13.02 335.73 12.98L335.73 12.98L335.73 12.98Q335.97 12.95 336.04 12.94L336.04 12.94L336.04 12.94Q336.52 12.82 336.57 12.38L336.57 12.38L336.57 12.38Q336.71 11.14 336.71 7.08L336.71 7.08L336.70 4.58L336.70 4.58Q336.70 4.31 336.55 4.25L336.55 4.25L336.55 4.25Q336.39 4.19 335.64 4.19L335.64 4.19L335.64 4.19Q334.66 4.19 334.16 4.24L334.16 4.24L334.16 4.24Q333.66 4.30 333.58 4.35L333.58 4.35L333.58 4.35Q333.49 4.40 333.38 4.54L333.38 4.54L333.38 4.54Q333.26 4.70 333.18 4.91L333.18 4.91L333.18 4.91Q333.10 5.11 333.08 5.24L333.08 5.24L333.08 5.24Q333.06 5.38 333.00 5.47L333.00 5.47L333.00 5.47Q332.93 5.56 332.81 5.56L332.81 5.56L332.81 5.56Q332.65 5.56 332.65 5.32ZM349.50 3.65L349.50 3.65L349.50 3.65Q349.50 3.46 349.89 3.46L349.89 3.46L349.89 3.46Q349.94 3.46 350.07 3.47L350.07 3.47L350.07 3.47Q350.20 3.49 350.27 3.49L350.27 3.49L350.27 3.49Q350.31 3.49 351.58 3.52L351.58 3.52L351.58 3.52Q352.86 3.56 353.68 3.56L353.68 3.56L353.68 3.56Q353.98 3.56 355.13 3.53L355.13 3.53L355.13 3.53Q356.29 3.50 356.48 3.50L356.48 3.50L356.48 3.50Q356.75 3.50 356.75 3.82L356.75 3.82L356.75 3.82Q356.75 3.91 356.66 4.38L356.66 4.38L356.66 4.38Q356.58 4.84 356.58 5.25L356.58 5.25L356.58 5.25Q356.58 5.38 356.51 5.47L356.51 5.47L356.51 5.47Q356.44 5.56 356.36 5.56L356.36 5.56L356.36 5.56Q356.15 5.56 356.15 5.26L356.15 5.26L356.15 5.26Q356.15 4.89 355.91 4.58L355.91 4.58L355.91 4.58Q355.67 4.27 355.32 4.26L355.32 4.26L355.32 4.26Q354.06 4.16 353.39 4.16L353.39 4.16L353.02 4.16L353.02 4.16Q352.30 4.16 352.18 4.26L352.18 4.26L352.18 4.26Q352.06 4.37 352.03 5.01L352.03 5.01L352.03 5.01Q351.97 6.02 351.97 7.35L351.97 7.35L351.97 7.35Q351.97 8.05 352.24 8.06L352.24 8.06L352.59 8.06L353.18 8.06L353.61 8.06L353.61 8.06Q354.45 8.06 354.73 8.01L354.73 8.01L354.73 8.01Q355.01 7.95 355.24 7.80L355.24 7.80L355.24 7.80Q355.50 7.62 355.56 7.28L355.56 7.28L355.56 7.28Q355.60 7.04 355.75 7.04L355.75 7.04L355.75 7.04Q355.88 7.04 355.91 7.08L355.91 7.08L355.91 7.08Q355.94 7.13 355.94 7.27L355.94 7.27L355.94 7.27Q355.94 7.36 355.88 7.91L355.88 7.91L355.88 7.91Q355.82 8.46 355.82 8.74L355.82 8.74L355.82 8.74Q355.82 9.00 355.85 9.24L355.85 9.24L355.85 9.24Q355.87 9.48 355.87 9.59L355.87 9.59L355.87 9.59Q355.87 9.94 355.77 9.94L355.77 9.94L355.77 9.94Q355.56 9.94 355.46 9.60L355.46 9.60L355.46 9.60Q355.26 9.02 355.11 8.92L355.11 8.92L355.11 8.92Q354.82 8.72 353.77 8.72L353.77 8.72L353.77 8.72Q353.35 8.72 353.09 8.72L353.09 8.72L353.09 8.72Q352.83 8.72 352.75 8.71L352.75 8.71L352.75 8.71Q352.67 8.71 352.63 8.71L352.63 8.71L352.63 8.71Q352.58 8.71 352.53 8.71L352.53 8.71L352.53 8.71Q351.96 8.71 351.96 8.97L351.96 8.97L351.96 8.97Q351.96 9.38 351.95 9.99L351.95 9.99L351.95 9.99Q351.93 10.60 351.93 10.99L351.93 10.99L351.93 11.55L351.93 11.55Q351.93 12.56 352.27 12.66L352.27 12.66L352.27 12.66Q352.62 12.77 352.87 12.77L352.87 12.77L352.87 12.77Q353.92 12.77 354.71 12.67L354.71 12.67L354.71 12.67Q355.50 12.57 355.90 12.42L355.90 12.42L355.90 12.42Q356.30 12.28 356.57 12.10L356.57 12.10L356.57 12.10Q356.83 11.93 356.91 11.78L356.91 11.78L356.91 11.78Q356.99 11.63 357.06 11.54L357.06 11.54L357.06 11.54Q357.14 11.44 357.22 11.44L357.22 11.44L357.22 11.44Q357.39 11.44 357.39 11.68L357.39 11.68L357.39 11.68Q357.39 12.28 356.79 12.89L356.79 12.89L356.79 12.89Q356.19 13.51 355.74 13.51L355.74 13.51L355.74 13.51Q354.73 13.51 353.47 13.44L353.47 13.44L353.47 13.44Q352.20 13.37 351.89 13.37L351.89 13.37L351.89 13.37Q351.50 13.37 350.91 13.43L350.91 13.43L350.91 13.43Q350.32 13.50 349.99 13.50L349.99 13.50L349.99 13.50Q349.69 13.50 349.69 13.36L349.69 13.36L349.69 13.36Q349.69 13.23 349.69 13.19L349.69 13.19L349.69 13.19Q349.69 13.15 349.73 13.12L349.73 13.12L349.73 13.12Q349.78 13.09 349.83 13.08L349.83 13.08L349.83 13.08Q349.87 13.08 350.01 13.03L350.01 13.03L350.01 13.03Q350.14 12.99 350.29 12.92L350.29 12.92L350.29 12.92Q350.63 12.75 350.74 12.26L350.74 12.26L350.74 12.26Q350.84 11.77 350.84 10.21L350.84 10.21L350.84 8.47L350.84 8.47Q350.84 8.09 350.86 7.29L350.86 7.29L350.86 7.29Q350.88 6.50 350.88 6.05L350.88 6.05L350.88 6.05Q350.88 5.67 350.85 4.77L350.85 4.77L350.85 4.77Q350.84 4.37 350.50 4.14L350.50 4.14L350.50 4.14Q350.17 3.92 349.72 3.91L349.72 3.91L349.72 3.91Q349.50 3.91 349.50 3.65ZM365.29 8.90L365.29 8.90L365.29 8.90Q365.29 7.38 365.88 6.16L365.88 6.16L365.88 6.16Q366.46 4.94 367.69 4.19L367.69 4.19L367.69 4.19Q368.91 3.44 370.59 3.44L370.59 3.44L370.59 3.44Q371.45 3.44 372.32 3.70L372.32 3.70L372.32 3.70Q373.18 3.95 373.70 4.20L373.70 4.20L374.22 4.47L374.22 4.47Q374.26 4.47 374.36 4.40L374.36 4.40L374.36 4.40Q374.46 4.33 374.51 4.33L374.51 4.33L374.51 4.33Q374.58 4.33 374.65 4.38L374.65 4.38L374.65 4.38Q374.72 4.44 374.72 4.55L374.72 4.55L374.72 4.55Q374.74 4.96 374.79 5.41L374.79 5.41L374.79 5.41Q374.84 5.87 374.88 6.16L374.88 6.16L374.88 6.16Q374.92 6.45 374.92 6.51L374.92 6.51L374.92 6.51Q374.92 6.76 374.75 6.76L374.75 6.76L374.75 6.76Q374.63 6.76 374.51 6.57L374.51 6.57L374.51 6.57Q373.16 4.02 370.59 4.02L370.59 4.02L370.59 4.02Q368.84 4.02 367.72 5.14L367.72 5.14L367.72 5.14Q366.60 6.26 366.60 8.06L366.60 8.06L366.60 8.06Q366.60 9.06 366.86 9.93L366.86 9.93L366.86 9.93Q367.12 10.79 367.65 11.51L367.65 11.51L367.65 11.51Q368.17 12.24 369.10 12.66L369.10 12.66L369.10 12.66Q370.02 13.08 371.25 13.08L371.25 13.08L371.25 13.08Q373.27 13.08 374.64 10.98L374.64 10.98L374.64 10.98Q374.70 10.88 374.85 10.88L374.85 10.88L374.85 10.88Q374.98 10.88 374.98 11.07L374.98 11.07L374.98 11.07Q374.98 11.23 374.93 11.49L374.93 11.49L374.93 11.49Q374.88 11.75 374.81 12.06L374.81 12.06L374.81 12.06Q374.74 12.38 374.72 12.45L374.72 12.45L374.72 12.45Q374.70 12.60 374.50 12.70L374.50 12.70L374.50 12.70Q373.74 13.06 373.32 13.24L373.32 13.24L373.32 13.24Q372.89 13.43 372.23 13.57L372.23 13.57L372.23 13.57Q371.57 13.72 370.89 13.72L370.89 13.72L370.89 13.72Q369.67 13.72 368.69 13.43L368.69 13.43L368.69 13.43Q367.71 13.13 367.09 12.66L367.09 12.66L367.09 12.66Q366.46 12.18 366.04 11.54L366.04 11.54L366.04 11.54Q365.62 10.91 365.46 10.25L365.46 10.25L365.46 10.25Q365.29 9.60 365.29 8.90ZM383.25 3.65L383.25 3.65L383.25 3.65Q383.25 3.50 383.64 3.50L383.64 3.50L383.64 3.50Q383.78 3.50 384.29 3.53L384.29 3.53L384.29 3.53Q384.79 3.56 385.22 3.56L385.22 3.56L385.22 3.56Q385.49 3.56 385.74 3.54L385.74 3.54L385.74 3.54Q385.98 3.53 386.46 3.53L386.46 3.53L386.46 3.53Q386.76 3.53 386.76 3.72L386.76 3.72L386.76 3.72Q386.76 3.96 386.27 3.96L386.27 3.96L386.27 3.96Q385.99 3.96 385.87 4.54L385.87 4.54L385.87 4.54Q385.74 5.11 385.74 5.71L385.74 5.71L385.74 6.23L385.74 6.23Q385.74 6.57 385.73 6.99L385.73 6.99L385.73 6.99Q385.71 7.42 385.71 7.52L385.71 7.52L385.71 7.52Q385.71 7.87 385.80 7.97L385.80 7.97L385.80 7.97Q385.88 8.06 386.19 8.06L386.19 8.06L386.19 8.06Q386.22 8.06 386.74 8.06L386.74 8.06L386.74 8.06Q387.25 8.05 388.49 8.05L388.49 8.05L388.49 8.05Q388.60 8.05 388.86 8.06L388.86 8.06L388.86 8.06Q389.13 8.06 389.74 8.07L389.74 8.07L389.74 8.07Q390.35 8.08 391.13 8.08L391.13 8.08L391.13 8.08Q391.23 8.08 391.26 7.84L391.26 7.84L391.26 7.84Q391.29 7.56 391.29 6.13L391.29 6.13L391.29 5.38L391.29 5.38Q391.29 4.83 391.17 4.51L391.17 4.51L391.17 4.51Q391.05 4.19 390.87 4.09L390.87 4.09L390.87 4.09Q390.70 3.99 390.52 3.96L390.52 3.96L390.52 3.96Q390.35 3.93 390.23 3.88L390.23 3.88L390.23 3.88Q390.11 3.84 390.11 3.70L390.11 3.70L390.11 3.70Q390.11 3.56 390.66 3.56L390.66 3.56L390.66 3.56Q390.80 3.56 391.26 3.57L391.26 3.57L391.26 3.57Q391.72 3.58 392.01 3.58L392.01 3.58L392.01 3.58Q392.15 3.58 392.49 3.57L392.49 3.57L392.49 3.57Q392.83 3.56 393.11 3.56L393.11 3.56L393.11 3.56Q393.43 3.56 393.43 3.74L393.43 3.74L393.43 3.74Q393.43 3.92 393.23 3.92L393.23 3.92L393.23 3.92Q392.84 3.92 392.64 4.16L392.64 4.16L392.64 4.16Q392.43 4.40 392.43 4.79L392.43 4.79L392.43 4.79Q392.43 5.25 392.41 6.42L392.41 6.42L392.41 6.42Q392.39 7.59 392.39 8.19L392.39 8.19L392.39 8.19Q392.39 8.51 392.38 9.20L392.38 9.20L392.38 9.20Q392.36 9.90 392.36 10.29L392.36 10.29L392.36 10.81L392.36 10.81Q392.36 11.23 392.39 11.58L392.39 11.58L392.39 11.58Q392.42 11.94 392.42 12.10L392.42 12.10L392.42 12.10Q392.42 13.01 393.60 13.13L393.60 13.13L393.60 13.13Q393.76 13.13 393.76 13.29L393.76 13.29L393.76 13.29Q393.76 13.38 393.62 13.41L393.62 13.41L393.62 13.41Q393.48 13.44 393.08 13.44L393.08 13.44L393.08 13.44Q392.92 13.44 392.57 13.40L392.57 13.40L392.57 13.40Q392.21 13.37 392.00 13.37L392.00 13.37L392.00 13.37Q391.75 13.37 391.39 13.40L391.39 13.40L391.39 13.40Q391.03 13.44 390.68 13.44L390.68 13.44L390.68 13.44Q390.52 13.44 390.45 13.44L390.45 13.44L390.45 13.44Q390.38 13.44 390.30 13.42L390.30 13.42L390.30 13.42Q390.22 13.40 390.20 13.36L390.20 13.36L390.20 13.36Q390.18 13.33 390.18 13.26L390.18 13.26L390.18 13.26Q390.18 13.17 390.32 13.10L390.32 13.10L390.32 13.10Q390.46 13.03 390.63 12.99L390.63 12.99L390.63 12.99Q390.80 12.95 390.96 12.83L390.96 12.83L390.96 12.83Q391.12 12.71 391.15 12.53L391.15 12.53L391.15 12.53Q391.24 12.03 391.24 11.51L391.24 11.51L391.24 11.51Q391.24 11.37 391.25 11.12L391.25 11.12L391.25 11.12Q391.26 10.86 391.26 10.75L391.26 10.75L391.26 10.75Q391.26 10.50 391.27 9.93L391.27 9.93L391.27 9.93Q391.29 9.35 391.29 9.03L391.29 9.03L391.29 9.03Q391.29 8.82 391.12 8.74L391.12 8.74L391.12 8.74Q390.95 8.65 390.40 8.65L390.40 8.65L390.40 8.65Q390.19 8.65 389.44 8.68L389.44 8.68L388.68 8.69L388.68 8.69Q388.07 8.69 387.30 8.67L387.30 8.67L387.30 8.67Q386.53 8.65 386.11 8.65L386.11 8.65L386.11 8.65Q385.90 8.65 385.83 8.74L385.83 8.74L385.83 8.74Q385.76 8.82 385.76 9.17L385.76 9.17L385.76 9.17Q385.76 9.52 385.73 10.08L385.73 10.08L385.73 10.08Q385.70 10.64 385.70 10.89L385.70 10.89L385.70 11.49L385.70 11.49Q385.70 12.10 385.81 12.39L385.81 12.39L385.81 12.39Q385.92 12.68 386.36 12.96L386.36 12.96L386.36 12.96Q386.47 13.03 386.96 13.03L386.96 13.03L386.96 13.03Q387.06 13.03 387.14 13.08L387.14 13.08L387.14 13.08Q387.23 13.13 387.23 13.19L387.23 13.19L387.23 13.19Q387.23 13.44 386.78 13.44L386.78 13.44L386.78 13.44Q386.36 13.44 386.09 13.41L386.09 13.41L386.09 13.41Q385.81 13.38 385.62 13.38L385.62 13.38L385.62 13.38Q385.22 13.38 384.78 13.42L384.78 13.42L384.78 13.42Q384.33 13.45 384.10 13.45L384.10 13.45L384.10 13.45Q383.45 13.45 383.45 13.24L383.45 13.24L383.45 13.24Q383.45 13.12 383.58 13.07L383.58 13.07L383.58 13.07Q383.71 13.02 383.88 13.00L383.88 13.00L383.88 13.00Q384.05 12.98 384.23 12.82L384.23 12.82L384.23 12.82Q384.41 12.66 384.48 12.35L384.48 12.35L384.48 12.35Q384.52 12.11 384.59 10.91L384.59 10.91L384.59 10.91Q384.66 9.70 384.66 8.61L384.66 8.61L384.66 7.81L384.66 7.81Q384.66 7.63 384.67 7.12L384.67 7.12L384.67 7.12Q384.68 6.61 384.68 6.30L384.68 6.30L384.68 6.30Q384.68 5.24 384.59 4.63L384.59 4.63L384.59 4.63Q384.55 4.28 384.22 4.09L384.22 4.09L384.22 4.09Q383.89 3.89 383.54 3.89L383.54 3.89L383.54 3.89Q383.40 3.89 383.33 3.80L383.33 3.80L383.33 3.80Q383.25 3.71 383.25 3.65Z"></path></g></svg>